<svg xmlns="http://www.w3.org/2000/svg" width="665.031" height="170.297" viewBox="-18.003 -15.641 665.031 170.297" xml:space="preserve"><g fill="#D21437"><path d="M86.362 62.306c-3.06 13.218-11.371 23.161-18.952 29.801a79.065 79.065 0 0 1-10.036 7.463 62.453 62.453 0 0 1-3.081 1.812l-.202-41.778 32.852-.213c-.172.96-.353 1.927-.581 2.915zm-10.41-21.377a1.365 1.365 0 0 0-.082.009c.014-.033.015-.084.022-.13.019.037.035.077.06.121zm-12.003 6.502c.035.045.133.115.161.151.013-.196-.012-.4.066-.571.053.017.1.027.154.045a.522.522 0 0 1 .317-.526c.033.047.033.055.067.117.09-.069.161-.058.238-.163.365.354.349.145.745.088.252-.037.5.144.796.078-.037.039-.073.084-.104.119.145.182.389.134.568-.007-.041.055-.06.124-.088.173.165.026.718.042.755-.196.01-.066-.041-.113-.12-.149-.217.082-.428.161-.694.115.071-.097.024-.142.193-.205-.018 0-.037-.007-.06-.012l-.01-.001c-.158-.008-.32-.007-.477-.018.024-.109.183-.211.36-.273a.365.365 0 0 1 .255-.064l.005-.001c-.091-.092-.077-.173-.012-.235-.023-.003-.038-.013-.067-.009.018-.008.141-.062.153-.062-.124-.073-.273-.207-.281-.387.067.004.15-.021.217-.017.045-.366-.473-.248-.641-.108.052.026.131.13.178.159a.314.314 0 0 0-.106.071.562.562 0 0 1 .047.183c-.096.042-.173.06-.253.081.014.013.027.021.037.036-.041.071-.045.026-.106.063.098.223-.065.368-.221.336-.088.25-.564.282-.511-.106-.046.053-.173.12-.215.164.022-.186-.029-.278-.115-.416.013-.021.037-.042.055-.063-.022-.115-.072-.115-.105-.203.041-.033.068-.02.099-.055-.598-.108-.453-.588.049-.374-.032-.085-.009-.25-.039-.334.053.021.161.021.214.043a1.758 1.758 0 0 1-.095-.452c.024-.003.04.007.05.029.064-.384.003-.429.334-.56.116-.048.256.055.366.041.11-.014.265-.166.395-.195-.014.029-.034.106-.055.154.095.125.234.171.392.161a.356.356 0 0 0-.028-.271c.053-.009.107-.011.157-.018-.04-.049-.08-.205-.161-.271.189-.053.401-.106.582-.035-.054.02.073-.12.053-.1.048.049.128.084.174.119a.327.327 0 0 1 .074-.068c-.11-.035-.239-.084-.301-.088.169.001.354-.017.513-.083.005-.055.02-.103.028-.154.278-.032.751-.161.33-.364-.188-.093-.644.048-.544.13-.168.171-1.017.167-1.297.006-.285.157-.584-.122-.487-.46-.157.037-.375-.075-.358-.287.014-.127.261-.243.356-.356.119.126.224.107.401.089-.041-.093-.007-.174-.09-.273.137.01.236-.02.368.04a2.341 2.341 0 0 1-.502-.477c.179-.029.409.096.629.068-.033-.268.21-.387.362-.308a.495.495 0 0 0-.058-.095c.212-.194.42-.005.593-.223a.773.773 0 0 1 .14.174c.262.016.519.081.777.039-.14-.071-.323-.165-.34-.328.213 0 .363-.146.452-.346-.167-.154-.39-.2-.402.084a1.069 1.069 0 0 1-.225-.169c.034-.193.04-.161-.117-.271a.127.127 0 0 0-.004.088c-.212-.132-.43-.281-.682-.326.09.002.132-.032.262-.008-.002-.085.057-.16.062-.221.14.041.246.038.394.054-.081-.035-.132-.094-.207-.134-.03-.143.037-.104-.074-.275a.397.397 0 0 0 .171-.171c.001-.038-.006-.072.006-.112.01.043-.129-.077-.118-.067.007-.005.1-.096.106-.106-.278.02-.484-.177-.117-.244-.849.09.589-.681.325-.081.016-.033.053-.108.057-.086.034.027.071.068.109.109.259-.054.459-.05.787.057-.024.033-.066.071-.09.105.158.078.874.125.82-.225-.046-.333-.857.139-.938-.408.287-.179.698 0 .791-.421-.144-.031-.277-.137-.38-.202.29-.047.485-.327.792-.244-.02-.027-.066-.055-.089-.077a.767.767 0 0 0 .144-.197c.224.03.326.113.597.106.238-.006.661 0 .576-.326a.561.561 0 0 0-.264 0 .866.866 0 0 1-.014.151c-.221.044-.511.067-.505-.21-.056.026-.162.024-.207.043.013-.076-.028-.187-.018-.265-.05-.006-.088.006-.128.018a1.49 1.49 0 0 1-.022-.346c-.226.081-.526.008-.448-.293.061.024.094.031.155.044-.094-.455.391-.394.427-.801.342.045.556.171.797-.165.004.057.031.155.031.197.062-.042.137-.063.2-.092.089.097.137.113.227.11a.169.169 0 0 1-.106.092c-.168.061-.337-.042-.517-.083a.406.406 0 0 0 .028.208c.196-.007.311.159.479.086.037.005.161.044.224.056.005.034-.012.082-.017.116.07-.028.084.016.156-.055.009.118.069.12.09.174a.35.35 0 0 0 .056-.285c.433.205.378-.525-.2-.455a.271.271 0 0 0-.119.038c-.11-.173-.401-.164-.611-.229.358.015.838-.028.915-.433.128-.682-.747-.335-.76-.465a1.818 1.818 0 0 1 0-.33c.118.011.276-.039.395-.02a1.683 1.683 0 0 0-.063-.271c-.342-.039-.206-.322-.003-.366-.037-.314.228-.392.461-.313a.863.863 0 0 1-.269-.195c.117.022.274-.027.394-.019-.006-.29.013-1.067.313-1.261.206-.134.443.001.493.253.053.26-.331.381.031.606-.064.043-.108.136-.186.181.224.057.167.11.196.277.234.076.52.021.73.122-.035.053-.057.167-.105.227.323.028.668.072.984.078-.061.205-.242.304-.446.293.521.282.006.484-.244.584.326.361-.103.443-.404.407a.342.342 0 0 0-.051.223c-.131.144.051.28.152.456-.059.007-.109.011-.163.021.049.388.458.186.743.232-.012.08-.02.09-.057.167.012.067.09.05.1.114-.119.421.929.238 1.185.365-.05.033-.165.187-.236.222.029.04.091.09.129.114-.017.042-.062.069-.058.118.355.099.436.335.103.523a.915.915 0 0 0 .286.285c.314-.616 1.241.162.372.368.005.064-.019.149-.016.213-.175-.007-.171.071-.274.111.144.11.127.201.157.354-.256.028-.609.478-.584-.04a.725.725 0 0 0-.334 0c-.012.312-.161.521-.352.743.381-.125.661.015.412.406.097.027.196.046.292.067-.086.059-.12.167-.036.306-.174-.155-.312-.292-.644-.252.092-.007.171.038.252.051l.007.006c-.013 0-.029-.004-.043 0a.3.3 0 0 0-.045.189c.047-.034.117-.042.165-.065.017.299.443.177.654.198.005-.036.017-.074.021-.116.287.207.477.12.473-.208-.138-.008-.287-.002-.43-.012-.006-.039-.006-.073-.012-.114-.031-.013-.065-.021-.094-.029.007-.018.016-.035.023-.062.411-.057.498-.431.974-.351-.029.18.012.24-.206.283.206-.043.406-.097.56.045-.047.022-.107.045-.154.071.091.009.165.064.266.066.02.461.684.243.647.612-.027.235-.512.398-.673.32.293.618-.666.349-.938.28.097.031.125.076.21.125-.041.03-.088.085-.139.139.008.009.018.014.024.023-.008-.002-.03 0-.047 0-.007.009-.015.015-.024.025.236.036.298.292.419.454-.146.065-.312.01-.464-.074l.002-.008c-.007-.003-.013-.003-.018-.003a1.407 1.407 0 0 1-.136-.083.361.361 0 0 1 .1.083c-.124-.005-.251-.001-.373-.011-.008-.038-.011-.074-.016-.114-.26-.109-.567.04-.395.323-.175-.157-.316-.293-.647-.253.092-.005.17.04.253.051l.008.009c-.016.002-.03-.005-.045 0a.28.28 0 0 0-.046.187c.05-.032.117-.041.166-.065.017.299.442.176.653.2.008-.037.018-.074.023-.117.195.138.339.135.413.023.022.005.039.005.058.013.171-.004.33.011.316.19.193.017.252.146.203.339-.168.06-.337.08-.496.002.126.064.192.196.266.287-.305.203-.59-.167-.805.176.177-.021.226.074.35.126a.454.454 0 0 0-.171.516c.279.019.624.061.856-.002l.017-.155c.246-.016.522-.064.701.108-.101.102-.117.188-.232.242-.026.028-.014.125-.019.158-.047.004-.109-.002-.151.005.219.011.409.056.382.284-.081.018-.126.058-.205.068.124.032.172.131.266.178-.061.349-.517.221-.742.246a.261.261 0 0 0 .089.235c-.104.014-.248.067-.36.056.065.016.132.041.199.056-.099.136-.335.21-.278.446.065-.004.15.021.217.019-.022.059-.002.155-.026.229a.37.37 0 0 0 .317.045c.011-.053-.002-.096.004-.145.379.12.918-.369 1.339-.007-.165.103-.376.084-.513.207.073.006.147.012.22.022-.061.067-.075.16-.225.225.225.246.486-.05.741.114-.046.027-.124.086-.154.104.253-.004.633-.043.444.29-.141.261-.414.13-.617.292.029.029.078.051.104.086-.263.467-.511.025-.722-.043-.242-.079-.617-.031-.782.249.067.019.104.046.163.072-.055.05-.109.226-.162.28.016.026.107.158.123.178.116-.12.273-.231.445-.213-.062.08-.072.189-.194.268.19-.036.332-.004.358.168.13-.197.337-.265.537-.163-.002-.271.287-.376.478-.187.078-.226.635-.575.688-.166-.078.01-.135.048-.209.07.115.01.166.047.272.071-.096.032-.255.162-.341.205.2.098.077.078.158.238-.134.011-.258.081-.395.081.285.045.344.333.281.62-.157.106-.26.289-.454.372-.367.158-.455-.217-.563-.188-.289.077-.067.318-.199.438-.072.066-.158.08-.251.086.026.016.043.04.071.053-.036.166-.159.24-.342.25.014.038.063.126.114.225.013.004.031 0 .043.005l-.03.026.05.106c.183-.043.371-.057.461.072.123-.218.683-.382.935-.379-.108.058-.179.161-.275.227.193-.039.377-.059.548.012-.112.045-.246.17-.33.206.057.02.114.051.167.07-.058.038-.114.137-.209.18.125-.011.199.051.323.063-.032.128.028.209-.043.326.092.013.167.087.277.082.004.106.058.136.079.204.156-.132.346-.267.561-.262.02.042.009.113.017.157l.169-.024c.257.302.053.842-.343.624.129.266-.033.5-.304.485-.058.252-.523.429-.533.042-.037.014-.104.025-.151.045a2.95 2.95 0 0 1-.008-.498 1.925 1.925 0 0 1-.193-.191c-.128.121-.317.153-.447.063.068.057.064.107.104.154-.249.022-.505-.002-.752.024.165.042.199.155.285.281-.159.124-.342.046-.484.145-.128.089-.027.225-.25.317.037.006.07.025.093.056-.053.068-.065.154-.081.238.124-.126.343-.232.486-.225.006.05.014.097.018.146.248-.152.615-.435.814-.096a.383.383 0 0 0-.149.18.952.952 0 0 1 .547-.054c-.048.051-.115.168-.164.214.146-.008.315-.045.444-.099.073.163.107.248-.035.387.167.013.342-.045.506-.095.056.162.072.2-.042.341.26.051.421.244.335.517-.095-.055-.237-.043-.329-.104.031.191.01.382-.152.351.479.36.149.627-.301.703.681.282-.157.455-.455.416-.254-.031-.75-.254-.862-.522a.522.522 0 0 0-.216.26c.118.015.074.047.208.021-.199.056-.432.114-.438.331.064.024.095.052.155.083-.14.096-.189.22-.114.383-.203.093-.413.133-.624.177-.008-.088-.082-.133-.065-.26-.072.024-.159.008-.228.027-.007-.042.004-.122-.019-.16-.089.055-.199.081-.28.2-.041.002-1.559.421-.899-.022-.24.112-.401-.106-.292-.35-.136.004-.302-.032-.437-.021.23-.428-.295-.386-.58-.409-.136-.141-.016-.088-.195-.127a.276.276 0 0 1 .108-.099c-.033-.012-.087.01-.124.006-.09.101-.195.176-.308.269a1.696 1.696 0 0 1-.398-.313c0 .182.004.363.026.54.061.497-.099 1.027.23 1.392.334.373.746.51 1.108.864.402.393.888.521 1.274.938-.246-.013-.39-.102-.61-.16-.238-.062-.482-.01-.714-.065-.543-.137-.555-.607-1.172-.555.01.529.5.619.702 1.007-.242-.255-.795-.119-1.116-.352-.41-.291-.587-.563-1.128-.554-.514.01-.842.174-1.277.431-.3.179-.859.534-1.152.172.232-.236.603-.277.81-.589-.405-.098-.627.184-.987.272-.327.076-.784-.007-1.043-.112.336-.259 1.066-.295 1.463-.451.262-.104.485-.216.695-.378.193-.147.195-.347.5-.414.182-.767.139-1.647.123-2.488-.198-.025-.432-.016-.55.029-.032.07-.086.185-.118.268.139.055.185.131.338.14-.079.217-.628.562-.702.117-.107-.047-.301-.084-.401-.104a2.158 2.158 0 0 0-.156.262c.048.009.102.016.154.02-.156.125-.364.2-.525.334-.071.058-.213.366-.353.413-.35.112-.235-.061-.462-.174-.145-.073-.336-.354-.34.048.056.009.104.003.158.016-.035.538-1.24.35-1.556.554-.02-.036-.012-.104-.018-.144-.124-.026-.149-.069-.232-.126.1-.059.179-.15.326-.164-.065.006-.177-.021-.252-.021-.005-.04.004-.123-.015-.157-.156.029-.206-.03-.346.086-.006-.168-.653-.588-.824-.74.179-.244.509-.021.753-.005-.197-.148-.499-.28-.559-.506a.698.698 0 0 1 .449.098c.004-.053.015-.109.018-.164.148.09.326.193.509.224.025-.044.116-.232.132-.286-.167-.188-.457-.283-.704-.334.002-.006.045-.266.063-.356.261-.037.56-.025.766.155.317-.283.455.213.833.19.698-.044.243-.437-.173-.528.269-.156.563-.173.837-.303-.147-.158-.387-.231-.568-.174-.06-.209-.297-.304-.559-.324.266.294-.012.528-.322.322.031-.055.045-.114.09-.171-.189.084-.403.159-.609.114h-.005a.553.553 0 0 1 .025-.105 2.762 2.762 0 0 1-.666-.129c-.004.01-.002-.153-.002-.156.069-.004.144-.015.215-.021-.183-.072-.398-.125-.449-.329.031.001.12-.001.154-.008-.274-.021-.751-.219-.437-.519.027.019.062.071.091.09.041-.217-.075-.412-.097-.618.052.018.106.032.161.049 0-.51-.247-.728-.039-1.272a.685.685 0 0 1 .36.396c.26-.146.523-.141.449.231.322.022.66.022.979 0-.059-.13.016-.153-.134-.273.258-.053.366.154.58.167.191.012.374-.144.605-.129-.005-.301-.329-.332-.575-.233.073-.071.106-.194.167-.269-.119.009-.264.007-.383.046.235-.061.138-.047.206-.226-.139.012-.292-.027-.436-.007.023-.007.031-.021.029-.045a1.203 1.203 0 0 0-.517.057c.033.021.053.067.11.096-.199-.047-.534-.085-.576-.375-.219.066-.51.041-.75.025.002-.066-.025-.151-.019-.215-.253.031-.386-.154-.492-.364.023.003.045.008.068.008-.23-.096-.377-.32-.089-.45zm-10.53 11.445-33.166-.123a57.282 57.282 0 0 1-.795-9.439c0-6.135 1.003-11.191 2.003-14.707.715-2.518 1.423-4.219 1.766-4.985 1.783-.015 7.745-.094 15.094-.566 7.414-.499 13.13-4.931 15.098-6.649v36.469zm-6.691 12.955-.08.01a.595.595 0 0 0 .019-.129l.061.119zm3.46 9.755c.127.266-.034.501-.305.484-.057.254-.523.43-.533.041-.037.017-.104.027-.152.047a2.744 2.744 0 0 1-.007-.497 1.621 1.621 0 0 1-.193-.19c-.128.12-.317.151-.446.062.066.059.062.107.102.154-.248.021-.504-.001-.752.024.166.041.196.154.285.28-.159.124-.341.048-.484.146-.127.087-.027.224-.247.317a.144.144 0 0 1 .09.055.484.484 0 0 0-.078.238c.124-.126.338-.231.484-.226l.017.146c.248-.151.614-.436.816-.094a.37.37 0 0 0-.149.177.939.939 0 0 1 .544-.051c-.048.049-.113.166-.162.212.143-.008.312-.046.445-.098.068.161.107.248-.039.389.172.01.345-.048.508-.097.057.161.07.199-.041.342.262.052.42.243.334.516-.094-.055-.234-.043-.329-.104.03.192.01.383-.151.351.478.358.148.627-.299.703.677.283-.159.452-.458.415-.255-.031-.749-.253-.861-.523a.51.51 0 0 0-.217.262c.118.014.077.046.209.021-.197.054-.433.114-.441.331.067.021.099.052.158.083-.14.095-.191.219-.117.381-.201.095-.409.134-.621.178-.006-.087-.083-.134-.067-.261-.071.025-.159.007-.228.028-.006-.043.005-.123-.018-.158-.09.052-.198.079-.279.197-.041.003-1.559.421-.897-.021-.243.111-.403-.107-.293-.35-.138.003-.303-.032-.44-.02.233-.43-.294-.388-.578-.409-.139-.145-.016-.089-.195-.129a.259.259 0 0 1 .108-.099c-.036-.011-.085.011-.124.007-.093.102-.195.179-.311.268a1.697 1.697 0 0 1-.397-.311c.004.181.004.364.025.539.065.497-.096 1.026.23 1.391.337.373.746.511 1.112.865.401.394.887.521 1.274.938-.25-.012-.391-.103-.611-.159-.239-.063-.485-.011-.714-.067-.544-.136-.557-.606-1.172-.557.009.533.499.623.702 1.011-.242-.255-.795-.119-1.118-.351-.409-.293-.586-.563-1.129-.555-.513.008-.842.172-1.272.431-.303.178-.861.531-1.157.172.233-.238.606-.278.814-.59-.407-.098-.63.185-.989.269-.329.079-.785-.003-1.043-.109.337-.258 1.067-.295 1.462-.451.263-.104.483-.216.696-.379.193-.146.193-.345.499-.413.184-.767.14-1.647.126-2.487-.202-.024-.432-.017-.552.027a3.656 3.656 0 0 0-.12.271c.141.056.186.129.338.14-.077.217-.625.563-.702.116a2.119 2.119 0 0 0-.399-.104 2.973 2.973 0 0 0-.158.262c.049.01.105.017.154.021-.154.125-.362.2-.524.333-.071.061-.212.368-.352.414-.35.112-.235-.062-.462-.173-.145-.075-.334-.355-.341.047.056.01.104.004.158.018-.034.536-1.239.348-1.556.554-.021-.037-.012-.104-.018-.145-.123-.027-.149-.07-.231-.127.099-.058.179-.148.327-.162-.065.007-.179-.021-.253-.021-.006-.041.004-.123-.017-.159-.155.032-.207-.028-.345.09-.005-.169-.655-.59-.822-.743.179-.244.506-.021.754-.004-.199-.147-.504-.277-.563-.506a.699.699 0 0 1 .449.1c.004-.053.018-.11.018-.165.146.092.328.191.508.224.03-.043.118-.233.132-.284-.168-.189-.456-.285-.702-.338.001-.005.043-.265.063-.353.262-.038.559-.028.766.156.32-.283.454.21.833.186.699-.045.245-.434-.175-.525.273-.158.563-.174.842-.304-.149-.157-.389-.232-.569-.173-.061-.209-.296-.306-.563-.327.267.297-.008.531-.321.323.03-.056.045-.112.091-.17-.187.083-.404.159-.612.114h-.002c.002-.035.014-.07.024-.104a2.7 2.7 0 0 1-.665-.13 1.312 1.312 0 0 1-.002-.156c.071-.005.144-.014.215-.021-.186-.072-.398-.124-.449-.328a.978.978 0 0 0 .151-.009c-.269-.019-.749-.218-.434-.52.028.02.059.072.091.091.041-.213-.077-.411-.097-.618.051.019.106.033.162.049 0-.508-.249-.726-.04-1.271a.668.668 0 0 1 .357.396c.263-.146.525-.14.451.232.323.02.661.02.982 0-.061-.13.011-.153-.138-.274.262-.052.366.154.583.167.189.014.376-.144.603-.129-.004-.301-.327-.33-.573-.231.07-.071.104-.192.167-.27-.12.011-.266.008-.386.047.238-.063.14-.05.209-.226-.139.011-.295-.028-.437-.006.021-.009.031-.024.027-.049a1.277 1.277 0 0 0-.515.057c.033.022.056.068.11.098-.199-.047-.532-.084-.577-.378-.218.07-.511.044-.751.028.004-.065-.022-.151-.017-.218-.25.032-.385-.154-.494-.362l.071.008c-.23-.097-.377-.321-.09-.45.033.045.135.114.161.151.014-.197-.011-.4.067-.573.051.019.101.028.153.047a.514.514 0 0 1 .317-.526c.033.047.033.057.067.116.088-.067.162-.057.238-.161.367.354.351.145.746.086.25-.037.5.145.795.078l-.103.12c.144.182.39.135.569-.007-.043.057-.059.124-.09.174.167.026.719.039.757-.195.012-.067-.041-.116-.12-.151-.218.082-.427.161-.694.115.071-.097.024-.14.193-.204-.02 0-.04-.009-.058-.013-.003 0-.009 0-.014-.002-.157-.007-.319-.005-.476-.017.023-.106.183-.213.359-.273a.374.374 0 0 1 .254-.063l.006-.003c-.09-.092-.076-.173-.011-.235-.023-.002-.038-.014-.069-.009.018-.007.144-.062.154-.062-.124-.072-.273-.204-.279-.386.067.002.151-.021.216-.017.045-.366-.475-.249-.641-.109.053.027.129.132.176.159a.289.289 0 0 0-.102.071c.009.032.052.146.045.183-.097.041-.173.059-.254.08.012.013.027.021.037.037-.041.069-.045.024-.104.064.094.22-.067.365-.225.333-.086.25-.563.284-.511-.106-.044.055-.173.119-.212.165.022-.186-.032-.278-.116-.418.012-.02.036-.04.055-.061-.021-.116-.071-.116-.103-.2.039-.036.065-.021.096-.059-.597-.107-.452-.588.049-.373-.032-.086-.012-.25-.04-.333.053.021.16.021.214.043a1.824 1.824 0 0 1-.093-.453c.023-.002.039.005.048.029.065-.383.003-.431.333-.56.12-.048.255.056.368.043.11-.017.265-.168.396-.196-.014.028-.034.105-.057.153.096.124.236.17.394.161a.378.378 0 0 0-.027-.272l.157-.016c-.041-.051-.081-.206-.161-.271.189-.055.402-.106.58-.034-.051.02.074-.12.055-.101.046.046.126.086.173.117a.299.299 0 0 1 .073-.067c-.11-.035-.24-.084-.299-.088a1.35 1.35 0 0 0 .511-.081c.006-.058.022-.104.03-.156.275-.032.749-.158.332-.365-.191-.091-.649.049-.547.132-.167.173-1.02.169-1.298.006-.285.156-.582-.12-.485-.459-.158.037-.375-.076-.356-.287.009-.127.261-.242.354-.357.12.124.222.109.399.089-.042-.093-.007-.17-.09-.273.139.011.238-.021.368.04-.196-.126-.351-.299-.5-.475.179-.028.412.096.627.067-.032-.27.212-.389.366-.308-.016-.028-.034-.061-.061-.096.212-.191.42-.005.593-.221a.87.87 0 0 1 .143.171c.26.018.52.083.774.042-.14-.072-.321-.167-.34-.33.214 0 .364-.147.451-.345-.166-.154-.386-.202-.397.082a1.096 1.096 0 0 1-.228-.165c.035-.194.041-.162-.116-.273a.102.102 0 0 0-.004.087c-.215-.13-.433-.28-.685-.326.09.002.134-.033.262-.008 0-.084.059-.16.067-.222.137.041.246.039.392.056-.081-.035-.133-.094-.207-.134-.029-.145.036-.105-.075-.277a.402.402 0 0 0 .173-.171c0-.036-.008-.07.002-.111.01.043-.126-.078-.118-.067.008-.006.102-.096.107-.105-.275.019-.483-.18-.116-.245-.848.091.589-.681.325-.081.015-.033.051-.106.057-.085a.977.977 0 0 1 .106.107c.264-.053.464-.049.791.058-.026.032-.067.071-.09.106.156.078.873.124.821-.228-.051-.332-.861.139-.94-.406.285-.18.699 0 .793-.421-.146-.031-.279-.138-.384-.203.291-.047.486-.327.795-.245-.024-.025-.065-.054-.09-.076a.884.884 0 0 0 .146-.197c.221.032.325.113.596.108.236-.007.661 0 .576-.328a.561.561 0 0 0-.264 0c-.003.049-.007.1-.015.151-.22.042-.511.066-.506-.21-.057.026-.161.024-.206.043.014-.078-.028-.189-.016-.266-.051-.006-.09.006-.132.017a1.55 1.55 0 0 1-.021-.345c-.223.08-.525.009-.447-.293a.916.916 0 0 0 .156.045c-.093-.454.391-.396.424-.802.343.046.558.171.799-.166.004.058.031.155.031.197.063-.041.138-.063.199-.091.091.095.139.114.228.107-.017.037-.037.07-.106.095-.168.059-.339-.042-.519-.083a.396.396 0 0 0 .031.206c.195-.003.309.162.478.089.038.006.164.043.224.055.008.035-.014.083-.017.116.07-.027.082.019.157-.053.006.116.069.119.09.172a.352.352 0 0 0 .056-.283c.432.203.379-.524-.201-.456a.257.257 0 0 0-.118.038c-.112-.174-.403-.164-.611-.229.357.014.837-.027.914-.433.128-.685-.745-.336-.759-.466a2.243 2.243 0 0 1 0-.328c.12.01.275-.039.393-.022a1.51 1.51 0 0 0-.062-.271c-.339-.039-.207-.32-.002-.366-.037-.314.228-.392.462-.313a.858.858 0 0 1-.27-.194c.116.019.275-.03.395-.021-.008-.289.013-1.065.311-1.26.207-.132.444.003.494.255.053.258-.331.38.029.604-.06.045-.106.139-.185.182.226.057.166.11.197.279.236.073.519.02.729.121-.036.055-.056.169-.104.225.322.031.667.073.982.078-.06.206-.24.307-.446.293.522.282.005.484-.243.585.327.36-.104.442-.404.407-.048.077-.054.145-.048.223-.133.143.048.279.148.455-.056.011-.106.013-.162.022.05.388.458.185.744.233-.012.078-.018.089-.059.165.013.068.09.049.102.113-.12.424.926.241 1.184.367-.053.033-.165.187-.235.222.028.042.091.09.13.114-.019.042-.066.069-.06.117.356.102.436.337.104.525a.891.891 0 0 0 .285.285c.312-.616 1.241.16.372.367.006.063-.02.148-.018.215-.173-.008-.169.07-.273.11.146.11.13.201.157.353-.255.028-.608.479-.584-.038a.708.708 0 0 0-.33 0c-.016.31-.166.521-.354.741.383-.125.66.016.408.407.103.028.2.045.293.067-.086.059-.117.168-.033.309-.174-.157-.314-.295-.647-.253.095-.007.174.037.254.052l.008.005c-.014.001-.03-.003-.044 0a.271.271 0 0 0-.044.188c.047-.034.116-.041.163-.066.019.3.444.178.655.201.005-.039.017-.076.021-.118.288.208.478.121.474-.207-.142-.008-.289-.002-.429-.012-.006-.04-.007-.076-.013-.115a.47.47 0 0 0-.097-.029c.008-.017.015-.034.028-.059.411-.058.496-.433.969-.354-.027.18.015.241-.204.284.204-.044.409-.097.56.043l-.153.072c.089.01.167.066.264.067.023.462.684.242.646.612-.025.237-.508.4-.672.321.295.617-.665.347-.938.28.098.03.128.076.21.122-.041.032-.089.086-.138.14.006.009.016.015.024.024-.008-.002-.029 0-.047 0-.008.01-.016.016-.024.024.237.037.297.292.419.455-.145.064-.31.008-.462-.074 0-.005.002-.005.002-.009l-.022-.001a2.314 2.314 0 0 1-.134-.084.353.353 0 0 1 .099.083c-.123-.004-.25 0-.372-.01-.008-.038-.009-.073-.014-.115-.261-.109-.568.042-.399.324-.173-.155-.313-.295-.645-.252.092-.007.174.036.251.05l.009.007c-.015.004-.03-.003-.043.001a.299.299 0 0 0-.046.188c.048-.034.116-.042.163-.065.02.299.447.176.656.2.006-.038.017-.075.023-.117.193.141.337.137.411.022.022.007.041.008.06.015.17-.006.331.01.316.19.192.016.254.146.202.337-.167.06-.338.082-.495.004.124.064.19.197.267.285-.309.204-.592-.167-.808.178.179-.023.228.073.352.126a.46.46 0 0 0-.173.516c.279.02.626.062.855-.002.009-.053.012-.103.02-.155.244-.015.519-.065.7.107-.1.102-.115.188-.232.244-.026.025-.011.12-.018.155-.047.004-.11-.002-.153.005.219.013.409.057.382.286-.079.016-.126.058-.203.066.124.029.171.131.268.178-.065.347-.521.221-.742.246a.254.254 0 0 0 .084.234c-.101.015-.244.067-.357.057.065.016.132.039.196.058-.096.133-.332.209-.275.444.066-.005.149.021.214.017-.017.061 0 .153-.027.231a.38.38 0 0 0 .32.042c.013-.048-.003-.094.006-.143.378.12.917-.369 1.339-.006-.166.104-.379.083-.514.204.07.008.147.014.22.023-.061.067-.075.16-.224.222.224.248.485-.048.74.118-.048.026-.125.085-.153.104.252-.003.63-.044.443.289-.144.262-.415.133-.618.291.028.032.079.054.103.088-.264.466-.507.023-.722-.043-.24-.076-.614-.031-.781.25.069.019.105.047.163.07-.055.053-.108.227-.161.279.014.027.104.159.122.18.117-.121.272-.23.446-.215-.061.082-.072.191-.194.271.191-.04.332-.005.358.167.129-.197.336-.263.534-.165-.002-.269.29-.376.483-.187.076-.225.633-.574.686-.165-.079.012-.138.049-.208.07.111.008.164.047.269.07-.094.031-.254.162-.338.205.198.097.078.078.159.238-.138.012-.26.08-.395.08.283.044.342.332.275.618-.155.108-.256.29-.45.372-.368.158-.453-.218-.563-.187-.289.078-.064.32-.198.438-.071.063-.159.079-.253.084.026.02.044.042.072.056-.036.162-.162.24-.343.251.012.035.063.126.114.225.014.002.03 0 .044.003-.01.009-.02.02-.03.027.018.036.034.071.05.107.182-.044.373-.058.461.07.122-.22.681-.382.933-.377-.108.058-.177.157-.274.228.193-.041.378-.063.547.009-.11.045-.244.172-.329.207.058.02.115.052.168.07-.061.039-.114.137-.208.178.123-.01.196.054.32.063-.03.131.028.211-.044.328.093.013.17.087.278.082.004.108.061.135.081.203.155-.132.346-.267.561-.261.019.041.011.112.017.158.01-.005.165-.025.167-.025.256.301.053.841-.34.622zm35.208-53.193-.236-.465h-.521c-.016 0-6.776 0-15.531-.565-4.195-.268-7.901-1.975-10.549-3.627a28.742 28.742 0 0 1-3.111-2.235c-.722-.6-1.094-.974-1.098-.974l-.248-.25h-.887l-.245.25s-.374.374-1.097.974c-2.172 1.807-7.371 5.468-13.661 5.862-8.757.565-15.518.563-15.532.565h-.523l-.234.465c-.039.08-4.16 8.284-4.162 20.922 0 4.045.425 8.546 1.543 13.375 6.385 27.392 33.295 40.813 33.362 40.87l.175.088h.778l.175-.084c.068-.055 27.828-13.47 34.22-40.874a59.388 59.388 0 0 0 1.542-13.374c-.002-12.638-4.123-20.844-4.16-20.923zM44.198 73.104a.676.676 0 0 0 0 .31c.063-.038.183-.044.25-.087a.516.516 0 0 0 .234.212c-.035-.255-.085-.442-.484-.435zm.142-1.403.064.031c-.025-.004-.058-.004-.092-.004.012-.007.016-.017.028-.027zm.456.295c-.073-.045-.132-.098-.222-.106-.008-.1-.034-.588-.209-.331-.177-.271-.267.033-.442.048.006.054-.022.132-.01.185-.02.005-.036.006-.055.01a.39.39 0 0 0 0 .186c.202.029.264-.038.338-.132.045-.011.129-.001.171-.022-.051.256.28.229.429.162zm1.179 7.308c-.043.038-.081.128-.15.18.251-.064.502.063.29.291.088-.045.188-.093.29-.109.038-.063.042-.14-.025-.242.099-.095.236-.109.37-.132-.155-.027-.291-.223-.301-.389-.063.02-.183.026-.232.047.075-.091.181-.255.282-.332a.515.515 0 0 0-.451.1c-.014-.049-.017-.11-.02-.16-.04-.021-.122.015-.157-.019-.037-.108-.01-.078-.105-.096.068.049.103.102.148.155-.144-.018-1.07-.354-.539.07-.462-.126-.256.28-.25.489.183-.103.399-.173.612-.136-.069.184.026.182-.209.225.16-.03.312.011.447.058zm-.929-9.246c-.148.086.045.382-.313.259a1.224 1.224 0 0 0-.01-.064c-.126-.033-.421.01-.292.21.074.121.263.028.373-.006-.05.301.275.301.46.404-.015-.215.043-.302.14-.341.106 0 .214-.004.32-.003a.15.15 0 0 1-.069-.032c.062-.001.127-.005.191-.012a.354.354 0 0 0-.002-.145c-.098.029-.187.058-.269.062-.081-.133-.137-.306-.26-.288-.058-.08-.147-.115-.269-.044zm-.364 3.48c.01.082.019.172.041.264.112.029.236.011.305-.083.1.583 1.082.202.792-.398.15-.138.115-.261-.064-.349l-.841.167c.329.322.04.518-.233.399zm-.683 11.259c.026.024.049.027.079.042.022-.069.004-.029-.079-.042zm.234-2.541c-.003-.147-.085-.258-.23-.221a.575.575 0 0 1-.194.185c.015-.031.019-.108.037-.153-.071-.095-.126-.075-.199-.037l-.116.077a.24.24 0 0 0-.147-.032c-.016.326.167.83.035 1.137a.277.277 0 0 0 .146.011c.016-.186-.002-.374.012-.562.155-.015.1-.112.196-.16.112-.058.218-.05.364-.04.033.199.377.189.549.185.09-.368-.228-.313-.453-.39zm.386-6.449c-.008-.112-.006-.233-.02-.341-.121.02-.196-.035-.224-.155-.076.068-.182.099-.297.068a.4.4 0 0 1 0-.182c.045 0 .088-.01.135-.005-.199-.159-.432-.038-.365.224-.014-.016.093.057.077.045-.048.021-.043.034-.116.032l-.013-.063c-.048-.01-.097.001-.149-.006v-.077c-.066.033-.111.03-.07.148.035.004.07 0 .102.012.091.252.092.467.163.694.065-.095.029-.26.051-.387.13-.019.121-.034.218-.077.055.052.166.075.224.105.011-.04.034-.07.044-.108.244.11.403.293.693.186.025-.246-.306-.131-.453-.113zm3.08 7.922c.007.046.02.095.042.149-.092-.126-.177-.24-.285-.311.047-.036.102-.056.144-.083.004.126.045.198.099.245zm.619-.455c.015.002.024.006.038.007l-.038-.001v-.006zm-.803.015.003.001c-.013.004-.025.004-.038.008a.657.657 0 0 0-.044.257.462.462 0 0 0-.34-.058c.092-.01.174.056.252.075l.004.006c-.014.001-.028.001-.039.007a.614.614 0 0 0-.048.282c.049-.049.118-.064.165-.1.02.45.444.266.656.301.006-.057.017-.111.023-.175.244.264.419.208.461-.123.116-.022.182-.182.178-.473-.126-.015-.257-.008-.383-.017.131.009.289-.018.391-.005.006-.038.018-.073.024-.116.287.206.476.121.474-.208-.142-.01-.287-.001-.43-.012-.007-.038-.009-.075-.013-.114-.262-.11-.57.039-.397.322-.175-.155-.316-.293-.647-.252.092-.009.173.038.251.049l.008.008c-.013.003-.027-.002-.041 0a.282.282 0 0 0-.045.188c-.049.05-.075.125-.075.22a.237.237 0 0 0-.09.058c-.126-.15-.266-.252-.512-.207.092-.008.173.057.252.078zm-.977-1.726a.492.492 0 0 1 .018-.078c.027.03.025.045.045.086a.237.237 0 0 0-.063-.008zm.158.147c-.006-.04-.008-.076-.014-.116a.237.237 0 0 1-.045-.015 2.6 2.6 0 0 0 .346-.055c-.043-.035-.079-.035-.159-.054.037-.036.094-.089.103-.149a.577.577 0 0 0-.443-.01l.279.169a1.954 1.954 0 0 0-.604-.104.36.36 0 0 0 .028.269c.048-.01.088-.021.128-.028-.082.061-.113.163-.028.301-.175-.155-.315-.295-.648-.253.095-.007.173.038.254.052l.006.005c-.014.004-.029-.002-.043.004a.277.277 0 0 0-.046.185c.048-.031.116-.041.164-.065.02.302.444.178.655.2.006-.037.018-.074.021-.115.29.206.478.119.474-.208-.139-.011-.286-.003-.428-.013zm-8.33-2.134c-.085-.125-.136-.311-.16-.491a.581.581 0 0 0 .099-.038c.018.298.445.178.655.199.004-.039.016-.075.022-.116.288.206.476.119.474-.209-.141-.007-.29-.002-.429-.01l-.015-.116c-.258-.11-.568.041-.397.323-.175-.156-.314-.293-.645-.252.092-.008.171.036.251.05l.008.006c-.016.001-.031-.003-.045 0-.02.041-.02.079-.028.117-.104.078-.234.106-.342.141.006-.063-.02-.146-.014-.211a.786.786 0 0 0-.324 0c.109.116-.011.115.201.161-.084-.01-.181.017-.259.009.027.217.222.308.438.28-.1.091-.048.115-.098.206.139.01.296.022.438.009l.17-.058zm2.695-.055c-.12.07-.199.229-.222.384-.069.037-.15.039-.238-.009-.026-.221-.289-.313-.431-.147l.116.079c-.112.038-.133.166-.077.277.03-.029.077-.059.101-.083-.008.057.029.158.021.225.077-.014.183.027.26.011-.004.042.016.103.012.145.464-.158.141.315.487.28.028.042-.001.047.038.07.027-.31-.161-.488-.211-.738a.218.218 0 0 0 .105-.077c.084.061.128.03.226.039-.01-.053.021-.132.009-.182.382-.058 0-.648-.196-.274zm-1.499-8.62c.041-.029.101-.04.146-.058h.019c.028.29.445.169.654.19.003-.036.018-.075.021-.115.289.206.478.12.476-.207-.142-.008-.289-.002-.431-.013-.005-.036-.007-.074-.014-.113-.259-.11-.567.04-.394.321-.06-.049-.117-.097-.173-.137l-.044-.262c-.134-.032-.256-.034-.383-.104a3.024 3.024 0 0 0-.111.114.594.594 0 0 0-.001.262c.077.026.162.046.25.06-.003.021-.017.038-.015.062zm1.165.502c-.161.032-.326-.047-.483-.027h.001c-.073-.096-.206-.098-.224.027.045.004.09.006.135.004-.023.011-.049.014-.075.031l.079-.031a.67.67 0 0 0 .179-.02c.002.025.004.053.008.081.079-.003.171.018.25.009-.01.052.021.126.01.177.202-.027.222.218.478.171.027-.133-.054-.822.24-.326.043.013.03-.013.067-.018.03.119.069.133.181.113.03-.234-.878-.558-.846-.191zm2.69.742a.56.56 0 0 1 .303.268c.305-.115.291-.257.1-.451-.031-.029.01-.091-.049-.131-.043-.028-.135.025-.179 0-.126-.079-.187-.124-.167-.321a.422.422 0 0 0-.12.034c-.018.163-.028.329.146.392-.042.009-.11.069-.148.081.03.084.096.136.193.138l-.079-.01zM76.82 52.583c.008.125.045.197.1.244a.86.86 0 0 0 .044.148c-.093-.124-.176-.239-.284-.311.045-.035.099-.055.14-.081zm.724-.211c.011.002.023.006.035.006h-.035v-.006zm-.971.298v.004c-.013.002-.026.002-.038.007a.617.617 0 0 0-.046.282c.05-.048.116-.063.166-.097.017.45.442.264.653.298.004-.053.017-.111.023-.173.246.263.419.206.462-.125.114-.021.179-.181.179-.472-.127-.013-.257-.008-.385-.018.132.01.29-.015.393-.004.006-.038.018-.075.022-.117.287.208.478.121.474-.208-.142-.007-.289-.001-.429-.011-.008-.039-.008-.076-.013-.115-.261-.11-.569.039-.396.325-.177-.158-.314-.295-.647-.255.093-.006.171.039.252.052l.008.006c-.014.002-.032-.004-.044 0a.3.3 0 0 0-.045.184.326.326 0 0 0-.075.221.271.271 0 0 0-.089.059c-.127-.15-.265-.251-.513-.208.095-.007.174.06.253.079l.003.003c-.012.002-.025.002-.037.007a.616.616 0 0 0-.045.256.463.463 0 0 0-.339-.059c.09-.005.169.059.253.079zM39.184 75.941c.004-.037.016-.075.022-.115.288.206.479.119.475-.208-.143-.007-.287-.002-.43-.013-.006-.036-.007-.074-.014-.112a.43.43 0 0 0-.23-.031c.152-.114.109-.087.304-.149a.92.92 0 0 0 .013-.299c-.057-.02-.104-.067-.154-.087.083.02.171-.011.25-.004a.634.634 0 0 0 0-.318 4.894 4.894 0 0 0-.441-.036c-.07-.038-.136-.03-.222-.032l.112.059c-.095-.024-.235 0-.327.01.018.105-.037.257-.018.362-.054-.042-.069-.014-.104 0-.044-.063-.118-.1-.16-.145.006.069.004.146.016.211.045.004.093.012.14.02.012.172.051.118.12.213.067-.335.434-.119.446-.488-.001.228-.01.463.008.688-.162.03-.27.156-.151.351-.175-.157-.314-.295-.647-.254.095-.006.173.038.254.052l.007.005c-.013.003-.029-.003-.043 0a.298.298 0 0 0-.047.189c.049-.033.119-.041.166-.064.018.296.445.174.655.195zm.444 6.94c-.14-.02-.347-.147-.526-.063-.039-.134-.049-.239-.098-.379.055.007.135-.02.192-.016a.78.78 0 0 0 0-.366c-.192-.056-.399.027-.599.031-.041-.238-.013-.561-.328-.484-.199.05-.274.297-.233.484.054.008.103.01.156.017-.231.502.909-.009.781.766-.216-.043-.322.073-.387.237-.016 0-.032 0-.043.004a.561.561 0 0 0 0 .264c.086-.015.126-.002.203-.042l.021.095c.069.016.146.003.207.046.024-.033.006-.098.016-.14.049-.024.108.017.152-.016-.012-.438.446-.093.615-.056-.014-.077.027-.187.016-.263.065-.001.147-.025.21-.018.036-.392-.25-.087-.355-.101zm1.695-9.732c-.209-.013-.425.001-.636-.013.034-.271-.128-.161-.22-.221.055.034-.226-.088-.167-.08a4.173 4.173 0 0 0-.199-.038c-.26-.104-.653-.146-.542.302.092.008.247-.02.347.005 0 .013 0 .026.003.032.019.006.043.009.062.014.018.465.06.228.331.407.1.063-.028.23.143.251.085.011.222-.186.276-.239-.26-.256.179-.354.33-.119.073-.095.193-.125.313-.119a.394.394 0 0 0-.041-.182zm-2.835-1.304c.007-.002.016 0 .024-.002a.028.028 0 0 1-.008-.005.037.037 0 0 0-.016.007zm2.5 6.353c-.037-.163.002-.32.178-.313-.042-.003-.095-.031-.144-.036.057-.069.059-.115.148-.153.05-.105.097-.211.078-.337-.159.108-.342.215-.498.409-.089-.103-.156-.252-.291-.293-.06.085-.085.049-.163.107-.031-.138-.028-.109-.158-.146.004.045-.011.1-.011.145-.189-.038-.455-.154-.642-.013.095.069.229.058.351.09a.417.417 0 0 0-.085.191c.153.013.315-.011.451.041.133-.288.656.142.786.308zm.079-4.289c-.038.049-.042.184-.034.317-.022.024-.045.045-.088.045.012 0-.24-.184-.278-.197-.053-.021-.101.039-.155.024-.033-.008-.061-.091-.104-.099-.13-.027-.255-.023-.391-.023h.098c-.103-.059-.189-.037-.193.094.056-.013.132.02.189.009 0 .213.387.186.549.261-.014.201.102.494.326.521.043.192.134.479.262.612.025-.316-.024-.588-.055-.865.055-.16.114-.322.082-.507-.018-.106-.047-.394-.208-.192zm3.853-5.918c.016.002.033 0 .045.002v.008l-.061.046-.043.006c.019-.023.037-.046.059-.062zm-1.245.66c.167-.269.765-.315 1.064-.224 0-.031.004-.066.007-.102a.506.506 0 0 0 .227-.055h.11c.01-.016.016-.03.025-.042.203.08.238.344.525.253a.388.388 0 0 0 .058-.262c-.112.017-.264-.036-.373-.014.072-.516-.27-.46-.674-.433.009.042.009.079.011.118-.205.003-.412.12-.309.319a.307.307 0 0 0-.053.163c-.217-.004-.389.051-.6.073-.005.051-.008.102-.016.156-.118-.121-.232-.124-.378-.156a.824.824 0 0 0 .059.207.68.68 0 0 0 .317-.001zm30.23-26.018c.01.084.02.173.041.265.112.032.238.012.305-.084.101.583 1.082.202.793-.396.149-.137.116-.26-.065-.349l-.84.168c.33.322.041.518-.234.396zm-3.358-.384c-.213-.014-.427 0-.637-.012.033-.274-.128-.164-.22-.223.055.033-.227-.09-.168-.08a4.249 4.249 0 0 0-.196-.039c-.26-.105-.656-.146-.545.301.092.009.247-.019.348.007 0 .012-.002.024 0 .032a.947.947 0 0 1 .066.014c.017.465.058.228.33.404.1.067-.028.232.145.252.082.012.218-.184.273-.24-.258-.252.18-.351.331-.118.072-.093.195-.124.314-.118a.398.398 0 0 0-.041-.18zm-.336 5.046c-.038-.163 0-.317.179-.311-.044-.004-.097-.031-.146-.036.059-.07.059-.116.148-.154.05-.104.098-.209.079-.335-.16.105-.343.213-.499.409-.088-.101-.157-.253-.288-.293-.063.083-.089.049-.165.108-.032-.138-.03-.109-.158-.147.004.044-.01.1-.01.145-.191-.039-.454-.156-.643-.014.098.069.23.055.352.09a.406.406 0 0 0-.085.194c.15.01.315-.014.447.039.136-.291.661.139.789.305zm3.35-6.498.071.032a.373.373 0 0 0-.095-.004.232.232 0 0 0 .024-.028zm.03.135c-.052.256.278.228.428.162-.073-.048-.131-.098-.224-.105-.006-.102-.031-.588-.204-.332-.177-.271-.27.033-.447.049.01.053-.02.131-.01.185l-.051.01a.346.346 0 0 0-.002.186c.205.029.265-.04.336-.131.05-.014.132-.004.174-.024zm.677-1.778c-.146.089.046.383-.31.26l-.012-.064c-.126-.033-.42.01-.293.211.074.119.264.026.376-.007-.051.301.275.301.459.404-.016-.214.043-.301.139-.339.106 0 .214-.004.32-.002a.174.174 0 0 1-.068-.034c.061-.002.123-.004.19-.014a.3.3 0 0 0-.002-.143c-.098.029-.184.058-.271.062-.077-.132-.134-.306-.255-.286-.062-.083-.151-.119-.273-.048zm-.125-2.064.045.001c-.002.002 0 .005 0 .007l-.06.047-.042.004c.018-.021.036-.045.057-.059zm-1.244.659c.165-.271.763-.316 1.063-.222 0-.033.005-.07.008-.104a.474.474 0 0 0 .226-.057h.113c.007-.014.015-.027.021-.042.203.083.24.344.527.255a.383.383 0 0 0 .059-.263c-.116.019-.263-.036-.375-.016.07-.514-.268-.459-.673-.431.008.04.008.078.008.118-.203.002-.409.121-.305.318a.279.279 0 0 0-.055.163c-.217-.006-.389.051-.6.072a1.864 1.864 0 0 1-.016.154c-.118-.12-.23-.123-.38-.154.01.063.038.147.064.208a.684.684 0 0 0 .315.001zm-5.815 10.77c-.103.087-.054.114-.099.205.138.009.293.021.436.007l.168-.055c-.085-.127-.134-.313-.159-.493.033-.012.07-.024.096-.04.021.301.447.18.656.201.005-.039.016-.075.023-.118.289.208.477.121.474-.207-.142-.01-.29-.002-.429-.013-.007-.039-.009-.074-.012-.113-.261-.111-.571.039-.399.322-.176-.157-.313-.293-.647-.253.095-.005.173.038.251.052l.01.006c-.013.001-.029-.004-.043 0-.022.04-.022.079-.03.116-.105.077-.234.106-.342.139.006-.063-.019-.146-.016-.209a.729.729 0 0 0-.322 0c.11.114-.012.113.203.159-.087-.009-.181.018-.26.008.027.218.222.309.441.286zm2.865-8.018c-.161.032-.324-.049-.482-.028-.073-.096-.206-.098-.224.028.045.004.091.006.138.004-.026.011-.053.014-.075.031l.075-.031a.675.675 0 0 0 .181-.02.801.801 0 0 0 .007.082c.079-.005.171.016.25.008-.007.051.024.126.01.178.203-.029.22.218.478.173.027-.136-.051-.825.242-.327.043.012.03-.016.064-.018.032.117.069.13.182.113.033-.236-.878-.561-.846-.193zm.337 8.118c-.12.068-.202.23-.222.385-.071.037-.15.039-.24-.008-.026-.221-.288-.313-.429-.147l.114.078c-.112.036-.134.165-.074.277.025-.03.074-.059.096-.081-.005.055.033.156.023.222.079-.016.186.027.262.012-.003.042.014.101.01.144.464-.16.142.316.489.281.028.042-.003.045.036.069.03-.311-.161-.487-.21-.738a.219.219 0 0 0 .102-.074c.086.057.13.028.229.037-.013-.052.02-.131.008-.183.381-.059-.001-.648-.194-.274zm3.134-6.416a.766.766 0 0 0 0 .309c.064-.04.186-.044.249-.086a.513.513 0 0 0 .236.208c-.036-.252-.082-.439-.485-.431zm-4.568 9.776c-.139-.021-.348-.148-.526-.064-.04-.133-.048-.239-.101-.376.057.004.14-.022.195-.017a.812.812 0 0 0 0-.367c-.195-.054-.398.027-.6.031-.038-.24-.012-.561-.324-.482-.199.048-.276.295-.233.482l.154.016c-.232.502.909-.009.78.766-.216-.042-.322.074-.389.239-.014.001-.029 0-.041.004a.575.575 0 0 0 0 .261c.087-.012.128-.002.203-.04l.023.095c.067.015.142.002.204.045.024-.034.007-.099.017-.139.048-.024.107.015.153-.017-.014-.438.446-.091.616-.055-.014-.077.025-.187.014-.263.064-.002.145-.025.207-.018.039-.393-.25-.088-.352-.101zm-.445-6.94c.004-.036.016-.073.023-.115.286.206.476.12.473-.208-.142-.01-.287-.002-.431-.013a1.054 1.054 0 0 1-.011-.113.433.433 0 0 0-.233-.029c.154-.116.111-.091.305-.15a.876.876 0 0 0 .011-.301c-.054-.02-.1-.064-.15-.085.082.021.173-.013.251-.006a.741.741 0 0 0 0-.318 5.357 5.357 0 0 0-.442-.035c-.071-.039-.137-.03-.223-.032l.112.058c-.094-.023-.231 0-.326.009.017.106-.037.256-.018.36-.051-.042-.068-.01-.102 0-.047-.063-.12-.096-.161-.142.008.069.006.146.015.21.047.006.093.01.142.019.012.171.049.119.116.213.071-.334.438-.118.449-.486-.002.226-.011.462.008.687-.162.028-.268.155-.152.348-.178-.156-.313-.293-.647-.252.094-.005.173.039.254.052l.007.008c-.014 0-.031-.005-.045 0a.303.303 0 0 0-.045.187c.047-.031.118-.042.164-.064.019.3.445.176.656.198zm5.435-.135c-.008-.115-.004-.233-.019-.339-.123.018-.199-.036-.224-.156-.075.067-.182.097-.298.067a.434.434 0 0 1 0-.183c.045 0 .091-.008.139-.002-.201-.161-.435-.041-.369.225-.013-.018.093.054.077.043-.05.02-.042.033-.114.031-.006-.021-.008-.042-.014-.063-.05-.01-.098.002-.149-.006v-.077c-.067.034-.112.03-.071.147.035.004.071.001.104.012.089.251.091.466.161.692.065-.092.029-.26.053-.385.128-.017.121-.032.217-.079.057.055.165.076.226.108.01-.041.034-.073.044-.108.241.109.402.294.69.184.025-.244-.305-.128-.453-.111zm1.918 5.756.016-.077c.029.031.027.046.045.083a.465.465 0 0 0-.061-.006zm-.051-.25.277.168a1.9 1.9 0 0 0-.604-.104.346.346 0 0 0 .03.268c.045-.009.086-.021.127-.029-.082.059-.114.164-.029.301-.177-.155-.314-.294-.647-.253.094-.005.171.037.251.051l.008.006c-.013.002-.027-.004-.044 0a.306.306 0 0 0-.044.189c.047-.034.118-.042.163-.067.02.298.445.179.655.201.006-.038.018-.076.024-.119.287.209.476.121.474-.205-.142-.011-.291-.002-.429-.014a1.278 1.278 0 0 1-.013-.114l-.046-.013c.108-.015.242-.032.346-.058-.045-.034-.079-.038-.161-.054.037-.035.095-.088.102-.149a.578.578 0 0 0-.44-.005zm-.723-2.871c.07.05.104.104.152.156-.147-.018-1.069-.353-.541.071-.462-.127-.255.28-.249.489.183-.1.398-.17.609-.133-.064.182.027.182-.206.225.158-.034.315.008.445.055-.042.041-.08.129-.148.181.248-.063.503.063.289.291.088-.045.189-.094.293-.111.034-.063.039-.137-.028-.241.099-.092.237-.111.371-.134-.155-.026-.292-.222-.3-.386-.065.02-.185.024-.233.046.074-.089.179-.255.28-.331a.51.51 0 0 0-.45.099c-.011-.048-.015-.11-.019-.16-.042-.021-.124.015-.156-.017-.039-.112-.014-.08-.109-.1zm-1.53 3.813c-.004-.146-.084-.257-.229-.218a.596.596 0 0 1-.195.184c.016-.032.019-.107.038-.154-.071-.097-.125-.076-.199-.036l-.116.075a.262.262 0 0 0-.148-.033c-.016.329.165.831.038 1.137a.253.253 0 0 0 .143.011c.016-.185-.002-.375.012-.56.156-.014.1-.113.197-.161.114-.056.218-.051.364-.041.035.201.377.188.548.184.091-.365-.228-.309-.453-.388zM68.785 40c.04-.032.1-.042.145-.06h.02c.028.289.444.17.653.192.006-.036.018-.074.022-.114.288.204.477.118.474-.206-.141-.013-.287-.004-.429-.014-.008-.041-.008-.078-.014-.115-.26-.11-.569.037-.395.322-.06-.051-.112-.096-.174-.138l-.043-.262c-.134-.032-.255-.035-.381-.105a2.136 2.136 0 0 0-.112.118.54.54 0 0 0 0 .259c.074.028.161.047.247.061-.004.02-.015.037-.013.062zm-1.074.942.025-.001c-.007-.003-.007-.006-.011-.007-.005.002-.008.006-.014.008zm2.579 2.065c-.037.049-.041.184-.033.318-.022.024-.045.043-.091.043a2.1 2.1 0 0 0-.277-.197c-.053-.021-.102.041-.154.026-.032-.011-.06-.092-.102-.1-.131-.025-.258-.023-.393-.023h.101c-.105-.06-.19-.038-.191.092.05-.01.129.02.182.01.003.213.392.185.553.261-.017.203.101.496.327.521.041.195.134.48.26.614.025-.316-.026-.587-.058-.866.058-.161.114-.323.086-.506-.021-.109-.048-.395-.21-.193zm2.384-1.973c-.044.008-.108.07-.146.082.03.085.095.134.191.137l-.078-.009a.554.554 0 0 1 .302.266c.306-.113.293-.257.099-.449-.03-.029.011-.092-.047-.131-.044-.028-.136.026-.177 0-.128-.08-.189-.123-.169-.324a.421.421 0 0 0-.119.035c-.019.165-.03.33.144.393zm.549 12.862c.026.022.049.024.078.039.022-.066.004-.029-.078-.039zm-12.86 11.326c-.006-.021-.01-.045-.016-.065a.771.771 0 0 0 .309-.1c.024.104.051.207.083.293-.018.026-.024.063-.012.107a.318.318 0 0 0-.222.149c-.047-.132-.106-.264-.142-.384zm.449-.43-.008.024c-.006-.006-.011-.009-.014-.011a.018.018 0 0 1-.006-.013h.028zm.105 0c.038.116.204.258.381.351a4.61 4.61 0 0 0-.19.387.563.563 0 0 0-.108-.051c-.007-.05-.017-.103-.027-.156.036-.167.006-.411-.073-.531h.017zm0 8.857c.632 0 1.132-.484 1.194-1.097l3.855-.068a3.061 3.061 0 0 0-.265-.377c-.402-.236-.447-.283-.447-.283s-.194-.369-.265-.522c-.134-.284-.399-.284-.399-.284s.045-.094-.579-1.087c-.623-.994-1.021-3.12-1.021-3.12s-.057-.903-1.952-.94l.169-.009c.079.009.155.022.222.032.116-.332.1-.773.287-1.092l1.263.032c.11.05.181.145.226.257.035.148.051.314.081.452l.001.197c0 .207.618.082.618.082h1.196c.783 0 .7-.7.7-.7v-1.484c0-.742.083-1.36-.948-1.36-1.03 0-2.885.207-3.751.207h-.244c-.864 0-2.72-.207-3.747-.207-.282 0-.476.049-.612.132-.013 0-.014-.003-.027-.001-.052.012-.089.056-.119.11-.152.171-.185.424-.189.715a1.527 1.527 0 0 0-.006.439c.006.029.002.075.002.117v.097c-.012.385-.091 1.056.012 1.428a.575.575 0 0 0 .235.383c-.043.248.658.124.658.124h.991s.698.041.698-.165c0-.207-.122-.865.415-.865h.82c.132.332.199.724.297 1.066a.966.966 0 0 0 .16-.021l-.002.025-.03.028c-1.589.126-1.656.921-1.656.921s-.397 2.126-1.021 3.12c-.62.994-.578 1.087-.578 1.087s-.265 0-.4.284c-.07.153-.265.522-.265.522s-.041.046-.442.283c0 0-.091.095-.268.377l3.944.075a1.2 1.2 0 0 0 1.189 1.09zM42.686 36.171c.023.104.049.207.08.293a.127.127 0 0 0-.012.104.33.33 0 0 0-.22.153c-.047-.134-.104-.268-.141-.389a.58.58 0 0 1-.016-.063.768.768 0 0 0 .309-.098zm.156-.264c-.002.008-.007.015-.009.023-.006-.004-.012-.007-.015-.011l-.004-.013h.028v.001zm.103 0c.038.113.204.257.38.348-.065.13-.134.26-.187.39a.504.504 0 0 0-.108-.051l-.028-.16c.034-.167.007-.408-.071-.527h.014zm-4.758-1.12c.005.03.005.08.005.126v.08c-.014.387-.095 1.067.011 1.439.021.123.08.274.231.381-.043.246.66.123.66.123h.991s.699.041.699-.166c0-.205-.123-.863.413-.863h.822c.131.331.198.724.296 1.064.042-.001.101-.008.162-.018 0 .009-.006.014-.004.023l-.027.029c-1.592.125-1.658.919-1.658.919s-.4 2.125-1.021 3.12c-.622.994-.579 1.088-.579 1.088s-.265 0-.396.282c-.073.154-.27.523-.27.523s-.043.045-.443.283c0 0-.088.095-.265.378l3.941.075a1.203 1.203 0 0 0 1.19 1.089c.632 0 1.131-.483 1.194-1.097l3.855-.067c-.177-.283-.267-.378-.267-.378-.4-.237-.442-.283-.442-.283s-.196-.369-.266-.523c-.134-.282-.402-.282-.402-.282s.046-.094-.576-1.088c-.621-.995-1.021-3.12-1.021-3.12s-.057-.9-1.953-.94l.163-.008c.08.008.16.022.229.033.114-.331.1-.774.285-1.093l1.265.03a.455.455 0 0 1 .224.257c.035.149.052.316.082.452.003.081 0 .153 0 .196 0 .206.618.083.618.083h1.195c.783 0 .701-.701.701-.701v-1.484c0-.741.082-1.359-.946-1.359-1.031 0-2.886.205-3.751.205h-.244c-.866 0-2.72-.205-3.751-.205-.281 0-.474.047-.614.131-.008.001-.011-.004-.023-.002-.053.013-.089.058-.117.11-.156.17-.188.425-.191.716-.022.142-.026.28-.005.442zm-10.134 1.647c.036-.167.008-.408-.07-.527h.016c.037.113.204.257.379.348-.067.13-.134.26-.187.39a.482.482 0 0 0-.108-.051c-.01-.053-.018-.107-.03-.16zm-.169-.504c-.004-.004-.01-.007-.016-.011l-.001-.013h.027c-.001.009-.006.015-.01.024zm-.076.639a.332.332 0 0 0-.222.153c-.045-.134-.103-.268-.14-.389a.973.973 0 0 1-.015-.063.838.838 0 0 0 .308-.099c.022.104.05.207.081.293a.123.123 0 0 0-.012.105zm4.972 6.652c-.399-.237-.443-.283-.443-.283s-.195-.369-.267-.523c-.134-.282-.399-.282-.399-.282s.043-.094-.576-1.088c-.622-.995-1.023-3.12-1.023-3.12s-.055-.9-1.953-.94c.055-.001.11-.006.167-.008.079.008.157.022.224.033.116-.331.102-.774.285-1.093l1.267.03c.11.052.179.148.225.26.035.147.053.313.081.449l.001.196c0 .206.618.083.618.083h1.194c.783 0 .702-.701.702-.701V34.75c0-.741.083-1.359-.948-1.359s-2.883.205-3.75.205h-.245c-.866 0-2.72-.205-3.75-.205-.281 0-.474.047-.613.131-.01.001-.013-.004-.023-.002-.055.013-.091.058-.121.11-.156.17-.185.425-.188.716-.021.14-.026.278-.006.439.006.03.005.08.005.126v.08c-.015.387-.093 1.067.011 1.439a.582.582 0 0 0 .232.381c-.041.246.658.123.658.123h.994s.696.041.696-.166c0-.205-.12-.863.415-.863h.823c.131.331.198.724.294 1.064.043-.001.102-.008.161-.018 0 .009-.003.014-.002.023l-.029.029c-1.591.125-1.657.919-1.657.919s-.399 2.125-1.022 3.12c-.622.994-.577 1.088-.577 1.088s-.265 0-.399.282c-.073.154-.267.523-.267.523s-.043.045-.442.283c0 0-.091.095-.268.378l3.943.075a1.204 1.204 0 0 0 1.191 1.089 1.2 1.2 0 0 0 1.191-1.097l3.857-.067c-.176-.28-.267-.375-.267-.375zm42.531 22.001c-.005-.021-.012-.045-.015-.065a.814.814 0 0 0 .309-.1c.023.104.047.207.082.293-.02.026-.023.063-.014.107a.317.317 0 0 0-.22.149c-.049-.132-.104-.264-.142-.384zm.449-.43-.01.024c-.004-.003-.008-.009-.016-.011 0-.004-.002-.008-.004-.013h.03zm.106 0c.035.116.203.257.375.349-.064.13-.131.259-.184.389a.715.715 0 0 0-.109-.051l-.029-.156c.033-.169.006-.411-.071-.531h.018zm0 8.857c.629 0 1.129-.484 1.19-1.097l3.857-.068a2.792 2.792 0 0 0-.268-.377c-.396-.236-.442-.283-.442-.283s-.194-.369-.268-.522c-.133-.284-.397-.284-.397-.284s.041-.094-.578-1.087c-.624-.994-1.021-3.12-1.021-3.12s-.058-.903-1.957-.94c.059-.004.116-.008.173-.009.079.009.153.022.221.032.118-.332.102-.773.287-1.092l1.262.032c.112.05.183.147.226.26.036.147.053.313.084.447v.199c0 .207.616.082.616.082h1.197c.782 0 .699-.7.699-.7v-1.484c0-.742.083-1.36-.948-1.36-1.028 0-2.883.207-3.75.207h-.245c-.865 0-2.718-.207-3.749-.207-.279 0-.473.049-.614.132-.007 0-.011-.003-.021-.001-.057.012-.095.059-.124.116-.151.172-.18.423-.189.71a1.531 1.531 0 0 0-.003.439c.003.029.003.075.003.117v.097c-.013.385-.092 1.06.012 1.431a.582.582 0 0 0 .232.38c-.041.248.659.124.659.124h.994s.695.041.695-.165c0-.207-.119-.865.417-.865h.82c.132.332.199.724.296 1.066.043-.001.1-.009.161-.021 0 .01-.004.016-.004.025l-.028.028c-1.59.126-1.655.921-1.655.921s-.402 2.126-1.021 3.12c-.624.994-.578 1.087-.578 1.087s-.266 0-.4.284c-.07.153-.266.522-.266.522s-.044.046-.445.283c0 0-.087.095-.267.377l3.946.075a1.2 1.2 0 0 0 1.191 1.089zM35.612 49.197c.033-.167.005-.409-.073-.527h.016c.038.113.205.257.382.348a5.327 5.327 0 0 0-.189.39.673.673 0 0 0-.109-.051c-.007-.05-.017-.105-.027-.16zm-.169-.504-.015-.01-.004-.013h.03a.08.08 0 0 0-.011.023zm-.077.642a.314.314 0 0 0-.221.15c-.047-.134-.104-.267-.141-.386-.007-.019-.012-.045-.016-.064a.801.801 0 0 0 .308-.102c.022.105.05.207.081.294-.019.03-.024.063-.011.108zm4.528 6.367s-.194-.368-.265-.521c-.134-.283-.4-.283-.4-.283s.044-.094-.577-1.089c-.621-.993-1.02-3.12-1.02-3.12s-.06-.901-1.952-.939l.165-.009c.079.01.157.022.224.033.116-.331.102-.775.286-1.093l1.264.03c.11.05.179.145.225.256.035.149.053.318.082.455v.196c0 .206.618.082.618.082h1.195c.783 0 .701-.701.701-.701v-1.483c0-.741.082-1.36-.949-1.36-1.028 0-2.884.205-3.749.205h-.244c-.865 0-2.72-.205-3.751-.205-.279 0-.472.049-.611.132-.011.001-.015-.005-.026-.003-.056.013-.093.06-.123.116-.152.171-.183.424-.187.712a1.529 1.529 0 0 0-.005.439c.005.031.005.08.005.125v.081c-.014.385-.095 1.066.011 1.438a.574.574 0 0 0 .232.379l-.002.001c-.042.247.662.123.662.123h.993s.697.041.697-.164c0-.207-.123-.865.412-.865h.822c.132.331.199.725.295 1.065a1.3 1.3 0 0 0 .163-.019c0 .009-.005.014-.003.023l-.027.029c-1.592.125-1.659.919-1.659.919s-.398 2.127-1.021 3.12c-.622.995-.579 1.089-.579 1.089s-.265 0-.397.283c-.075.154-.267.521-.267.521s-.045.047-.445.283c0 0-.088.095-.266.378l3.942.076c.067.609.564 1.091 1.19 1.091.631 0 1.131-.484 1.193-1.098l3.856-.069c-.177-.283-.266-.378-.266-.378-.396-.234-.442-.281-.442-.281zM68.215 77.82c.023.104.046.207.08.294-.018.028-.022.062-.012.107a.317.317 0 0 0-.22.151c-.046-.135-.105-.268-.144-.388a.77.77 0 0 0-.016-.065.794.794 0 0 0 .312-.099zm.155-.265a.586.586 0 0 1-.01.024c-.004-.003-.008-.01-.016-.011 0-.004 0-.008-.004-.014h.03v.001zm.106 0c.037.115.203.258.38.35a5.12 5.12 0 0 0-.19.388c-.035-.018-.07-.038-.108-.05-.007-.051-.019-.104-.029-.157.036-.167.006-.41-.071-.53h.018v-.001zm-4.423-2.383c-.009.002-.012-.003-.022-.001-.057.011-.09.058-.122.112-.153.17-.183.423-.191.715-.02.141-.023.278-.004.438.004.029.004.075.004.117v.096c-.014.387-.092 1.063.014 1.432.02.124.08.274.234.38l-.004.002c-.041.246.659.122.659.122h.993s.697.042.697-.165-.123-.865.417-.865h.819c.133.332.199.725.295 1.066a.987.987 0 0 0 .162-.02c0 .01-.004.015-.004.025l-.023.026c-1.596.125-1.663.921-1.663.921s-.399 2.128-1.019 3.12c-.623.995-.578 1.088-.578 1.088s-.265 0-.399.285c-.071.151-.265.519-.265.519s-.046.05-.447.286c0 0-.086.094-.265.376l3.946.076a1.2 1.2 0 0 0 1.189 1.091c.629 0 1.129-.486 1.19-1.099l3.857-.068a2.691 2.691 0 0 0-.268-.376c-.397-.236-.443-.286-.443-.286s-.194-.367-.267-.519c-.134-.285-.397-.285-.397-.285s.041-.093-.579-1.088c-.623-.992-1.02-3.12-1.02-3.12s-.059-.899-1.949-.94l.165-.007c.079.008.154.021.221.033.118-.331.101-.776.284-1.095.681.018 1.213.03 1.267.031a.45.45 0 0 1 .224.258c.036.148.053.315.08.452.004.081.003.152.003.196 0 .206.617.082.617.082h1.196c.784 0 .701-.701.701-.701V76.4c0-.742.083-1.36-.949-1.36-1.028 0-2.883.205-3.749.205h-.246c-.866 0-2.72-.205-3.75-.205-.277.001-.47.051-.611.132M118.347 50.84l-.852 11.928c-.426-.071-.852-.106-1.278-.106h-2.476c-.409 0-.826.035-1.252.106a489.23 489.23 0 0 0 3.037-18.212 701.295 701.295 0 0 0 2.449-18.372c.39.072.754.133 1.092.186a6.904 6.904 0 0 0 2.103 0c.354-.053.727-.114 1.118-.186.959 2.13 1.961 4.296 3.009 6.496 1.046 2.203 2.094 4.394 3.142 6.578a439.705 439.705 0 0 0 3.142 6.417 856.372 856.372 0 0 0 3.009 5.965c2.13-3.977 4.25-8.139 6.362-12.488a443.45 443.45 0 0 0 6.045-12.967c.887.178 1.651.266 2.29.266.603 0 1.349-.088 2.236-.266l1.145 9.852c.408 3.514.807 6.95 1.198 10.304.391 3.355.781 6.489 1.172 9.4.39 2.911.745 5.254 1.065 7.029a21.7 21.7 0 0 0-2.158-.106H149.607c-.746 0-1.491.035-2.237.106a256.828 256.828 0 0 0-.878-11.875c-.409-4.261-.826-8.485-1.252-12.674h-.106c-2.024 4.189-4.012 8.308-5.964 12.355a1266.038 1266.038 0 0 0-5.805 12.194 5.823 5.823 0 0 0-.506-.079 4.307 4.307 0 0 0-.506-.027c-.178 0-.346.008-.506.027a5.803 5.803 0 0 0-.505.079 3596.128 3596.128 0 0 1-5.726-11.928 912.66 912.66 0 0 0-5.885-12.088h-.106a179.556 179.556 0 0 0-1.278 12.086zM193.539 37.181c-.569-1.828-1.359-3.381-2.37-4.659a10.398 10.398 0 0 0-3.675-2.957c-1.437-.692-3.008-1.038-4.712-1.038-1.81 0-3.434.435-4.872 1.305-1.438.87-2.653 2.05-3.648 3.542-.994 1.491-1.749 3.239-2.263 5.245-.515 2.005-.772 4.146-.772 6.417 0 2.84.301 5.237.905 7.188.605 1.953 1.421 3.524 2.45 4.713 1.029 1.19 2.218 2.05 3.567 2.582 1.35.533 2.77.799 4.26.799 1.598 0 3.125-.337 4.582-1.012 1.454-.674 2.722-1.704 3.806-3.088 1.082-1.384 1.953-3.142 2.609-5.272.656-2.129.985-4.65.985-7.562-.001-2.306-.286-4.374-.852-6.203zm-29.582-.027a18.492 18.492 0 0 1 4.127-6.07c1.775-1.739 3.923-3.106 6.444-4.101 2.521-.994 5.324-1.491 8.414-1.491 2.839 0 5.484.391 7.935 1.171 2.45.782 4.58 1.953 6.391 3.515 1.81 1.562 3.238 3.541 4.286 5.938 1.046 2.396 1.571 5.192 1.571 8.387 0 2.663-.506 5.148-1.517 7.456a18.695 18.695 0 0 1-4.208 6.044c-1.792 1.722-3.933 3.063-6.417 4.021-2.485.958-5.218 1.438-8.201 1.438-2.805 0-5.44-.346-7.907-1.039-2.469-.692-4.616-1.81-6.443-3.354-1.83-1.544-3.276-3.515-4.341-5.911-1.065-2.396-1.597-5.263-1.597-8.6-.002-2.628.485-5.096 1.463-7.404zM212.762 30.604a283.902 283.902 0 0 1-.16-4.42c.993.178 1.792.266 2.396.266.603 0 1.402-.088 2.396-.266 3.869 4.296 7.695 8.521 11.476 12.674 3.782 4.153 7.66 8.379 11.636 12.674v-9.797c0-1.739-.009-3.453-.027-5.14-.018-1.686-.036-3.239-.053-4.659a94.54 94.54 0 0 0-.107-3.674c-.053-1.029-.115-1.722-.186-2.077.993.178 1.792.266 2.396.266.603 0 1.402-.088 2.396-.266a628.027 628.027 0 0 0-.692 16.135 300.626 300.626 0 0 0-.133 6.843c-.018 2.254-.027 4.66-.027 7.216v6.39a21.939 21.939 0 0 0-2.183-.106c-.781 0-1.473.035-2.076.106a684.486 684.486 0 0 0-23.272-25.72 177.024 177.024 0 0 0-.106 6.23v6.176c0 2.13.008 3.941.026 5.433s.044 2.751.08 3.78c.035 1.03.071 1.873.107 2.53.035.657.07 1.18.106 1.57a7.76 7.76 0 0 0-1.278-.106h-1.224c-.818 0-1.634.035-2.45.106.071-.283.16-1.295.266-3.035.107-1.739.222-3.86.347-6.364.123-2.502.23-5.218.319-8.147.088-2.929.133-5.742.133-8.441.001-2.449-.035-4.507-.106-6.177zM262.739 32.042c-.017-.852-.062-1.472-.133-1.863-.533 0-1.189.018-1.969.053-.783.036-1.616.08-2.503.133-.888.053-1.793.125-2.717.213-.922.089-1.774.186-2.556.293.072-.39.135-.78.187-1.172a8.524 8.524 0 0 0 0-2.342 23.776 23.776 0 0 0-.187-1.172c1.208.036 2.298.072 3.276.107.976.035 1.969.062 2.982.079 1.011.019 2.112.036 3.3.054 1.189.018 2.618.026 4.288.026 1.669 0 3.097-.008 4.286-.026 1.19-.018 2.281-.035 3.276-.054.993-.017 1.961-.044 2.902-.079.94-.035 1.961-.071 3.061-.107-.071.391-.133.781-.185 1.172a8.39 8.39 0 0 0-.08 1.171c0 .391.025.781.08 1.171.052.392.114.782.185 1.172a49.322 49.322 0 0 0-2.395-.293 69.946 69.946 0 0 0-2.637-.213c-.869-.053-1.695-.097-2.476-.133a45.31 45.31 0 0 0-1.969-.053 5.387 5.387 0 0 0-.081.745c-.018.32-.026.692-.026 1.118v16.136c0 2.946.035 5.564.107 7.854.07 2.29.177 4.536.319 6.736a16.928 16.928 0 0 0-1.97-.106H264.311c-.711 0-1.367.035-1.97.106.141-2.2.247-4.446.319-6.736.071-2.29.107-4.908.107-7.854V34.865c0-1.03-.011-1.971-.028-2.823zM316.817 59.015a12.981 12.981 0 0 0-.426 2.263c-2.875 1.455-6.497 2.183-10.863 2.183-3.089 0-5.85-.435-8.281-1.305-2.432-.869-4.492-2.094-6.178-3.674a15.804 15.804 0 0 1-3.861-5.618c-.887-2.165-1.331-4.507-1.331-7.029 0-3.692.577-6.825 1.731-9.4 1.153-2.573 2.697-4.667 4.632-6.283 1.935-1.615 4.18-2.795 6.736-3.542 2.556-.745 5.237-1.118 8.042-1.118.922 0 1.899.071 2.928.213 1.029.142 2.024.329 2.982.559.959.231 1.873.506 2.742.825.87.32 1.606.658 2.21 1.012a16.624 16.624 0 0 0-.825 2.689c-.196.905-.329 1.82-.399 2.742h-.746c-1.35-1.704-2.734-2.919-4.153-3.647-1.421-.727-3.089-1.092-5.006-1.092-1.42 0-2.848.32-4.287.959-1.438.639-2.742 1.615-3.914 2.928-1.171 1.314-2.122 2.992-2.849 5.033-.729 2.042-1.091 4.482-1.091 7.323 0 2.734.373 5.068 1.118 7.002.745 1.935 1.712 3.514 2.902 4.739 1.189 1.225 2.538 2.122 4.047 2.689 1.508.568 3.026.852 4.553.852.852 0 1.721-.097 2.609-.293.887-.194 1.757-.461 2.609-.798s1.659-.754 2.423-1.252a10.778 10.778 0 0 0 1.996-1.651l.693.426a26.86 26.86 0 0 0-.743 2.265zM326.829 33.081a226.525 226.525 0 0 0-.321-6.896c.605.072 1.262.133 1.973.186.709.054 1.508.08 2.396.08s1.686-.026 2.396-.08a45.33 45.33 0 0 0 1.971-.186 220.368 220.368 0 0 0-.319 6.896 253.093 253.093 0 0 0-.107 7.854v7.243c0 2.023.007 3.976.027 5.857.017 1.882.044 3.514.08 4.899 2.023 0 4.045-.054 6.07-.16a91.098 91.098 0 0 0 6.123-.533c-.07.391-.124.746-.158 1.065-.036.32-.056.764-.056 1.332 0 .568.02 1.011.056 1.331.034.319.088.586.158.798-.958-.035-2.139-.062-3.542-.079-1.4-.019-3.328-.027-5.776-.027h-8.44c-.8 0-1.404.008-1.811.027-.409.017-.755.044-1.04.079.144-2.2.249-4.446.321-6.736.071-2.29.104-4.908.104-7.854v-7.243c0-2.945-.034-5.564-.105-7.853zM367.407 36.196a194.454 194.454 0 0 0-2.609 6.311 236.871 236.871 0 0 0-2.396 6.363h9.744c-.78-2.165-1.554-4.287-2.315-6.363a241.258 241.258 0 0 0-2.424-6.311zm18.852 26.573a29.235 29.235 0 0 0-2.423-.106H379.309c-.765 0-1.519.035-2.264.106a901.34 901.34 0 0 0-1.757-5.325 172.497 172.497 0 0 0-1.917-5.432 229.171 229.171 0 0 0-6.816-.106 141.96 141.96 0 0 0-5.54.106 109.632 109.632 0 0 0-1.97 5.432 127.624 127.624 0 0 0-1.651 5.325 7.62 7.62 0 0 0-1.251-.106h-2.529c-.425 0-.888.035-1.385.106.426-.922.993-2.2 1.704-3.833.71-1.633 1.491-3.479 2.343-5.539.853-2.059 1.766-4.268 2.741-6.63.978-2.36 1.953-4.748 2.931-7.162.976-2.414 1.933-4.793 2.874-7.137s1.803-4.526 2.584-6.549c.354.071.692.133 1.013.186.318.053.655.08 1.01.08a6.18 6.18 0 0 0 1.013-.08c.32-.053.655-.115 1.013-.186 1.134 3.018 2.351 6.249 3.647 9.692 1.296 3.444 2.6 6.825 3.914 10.145a560.776 560.776 0 0 0 3.834 9.452c1.243 2.981 2.378 5.502 3.409 7.561zM394.513 33.081a233.153 233.153 0 0 0-.32-6.896c.604.072 1.261.133 1.972.186.708.054 1.508.08 2.396.08.887 0 1.684-.026 2.396-.08.71-.053 1.366-.114 1.97-.186a220.356 220.356 0 0 0-.318 6.896 252.833 252.833 0 0 0-.108 7.854v7.243c0 2.946.036 5.564.108 7.854.069 2.29.177 4.536.318 6.736a16.928 16.928 0 0 0-1.97-.106h-4.792c-.711 0-1.367.035-1.972.106.143-2.2.247-4.446.32-6.736.071-2.29.106-4.908.106-7.854v-7.243c0-2.946-.035-5.565-.106-7.854zM430.617 32.468c-.32-.922-.81-1.624-1.465-2.103-.659-.479-1.511-.789-2.556-.932-1.05-.141-2.3-.213-3.755-.213a653.771 653.771 0 0 0-.161 14.485c.214.035.419.062.613.08.195.018.381.026.56.026 2.343 0 4.136-.63 5.379-1.89 1.242-1.26 1.862-3.168 1.862-5.725.001-1.562-.158-2.804-.477-3.728zm-7.936 13.526v2.184c0 2.946.036 5.564.108 7.854.069 2.29.177 4.536.319 6.736a16.945 16.945 0 0 0-1.971-.106h-4.792c-.711 0-1.367.035-1.972.106.143-2.2.247-4.446.32-6.736.071-2.29.106-4.908.106-7.854v-7.243c0-2.946-.035-5.565-.106-7.854a233.153 233.153 0 0 0-.32-6.896c.604.072 1.261.133 1.972.186.708.054 1.508.08 2.396.08.957 0 2.05-.044 3.273-.133 1.225-.088 2.744-.133 4.553-.133 1.351 0 2.504.036 3.461.107.961.071 1.784.178 2.477.319a8.785 8.785 0 0 1 1.813.559 9.191 9.191 0 0 1 1.464.826 8.617 8.617 0 0 1 2.529 2.902c.622 1.154.931 2.529.931 4.126 0 2.592-.709 4.705-2.13 6.338-1.419 1.633-3.461 2.787-6.122 3.461a167.263 167.263 0 0 0 5.484 9.026c1.952 3.001 3.905 5.974 5.857 8.92a27.626 27.626 0 0 0-2.396-.106h-4.818c-.799 0-1.607.035-2.423.106l-9.534-16.774h-.479v-.001zM476.732 28.793c-1.633 0-2.965.48-3.994 1.438-1.029.958-1.544 2.078-1.544 3.355 0 1.313.399 2.387 1.198 3.221.799.835 1.801 1.589 3.009 2.263a48.9 48.9 0 0 0 3.888 1.944 20.338 20.338 0 0 1 3.887 2.289 11.896 11.896 0 0 1 3.009 3.302c.799 1.296 1.199 2.956 1.199 4.979 0 1.776-.338 3.4-1.013 4.874s-1.633 2.734-2.876 3.78c-1.243 1.048-2.724 1.846-4.446 2.396-1.722.55-3.647.826-5.777.826-1.917 0-3.631-.205-5.14-.613-1.509-.407-2.653-.913-3.435-1.518.355-1.242.656-2.378.905-3.408a38.35 38.35 0 0 0 .64-3.355h1.012a7.075 7.075 0 0 0 2.289 4.047c.604.533 1.332.95 2.185 1.251.852.302 1.81.453 2.875.453 2.13 0 3.701-.532 4.713-1.597s1.518-2.343 1.518-3.834c0-1.349-.391-2.45-1.171-3.302-.782-.852-1.759-1.605-2.93-2.263a48.716 48.716 0 0 0-3.834-1.917 19.577 19.577 0 0 1-3.834-2.263 11.522 11.522 0 0 1-2.929-3.274c-.782-1.296-1.172-2.956-1.172-4.979 0-1.845.328-3.479.985-4.899.656-1.419 1.536-2.609 2.636-3.567a11.423 11.423 0 0 1 3.808-2.184 13.867 13.867 0 0 1 4.553-.745c1.918 0 3.595.231 5.033.692 1.438.462 2.67 1.101 3.701 1.917-.32.817-.596 1.607-.826 2.37l-.878 2.902h-.8c-1.137-3.053-3.284-4.581-6.444-4.581zM503.013 32.042c-.02-.852-.063-1.472-.133-1.863-.533 0-1.19.018-1.973.053-.779.036-1.613.08-2.501.133-.888.053-1.793.125-2.716.213a65.25 65.25 0 0 0-2.558.293c.072-.39.133-.78.188-1.172a8.682 8.682 0 0 0 0-2.342 29.73 29.73 0 0 0-.188-1.172c1.208.036 2.3.072 3.276.107.977.035 1.97.062 2.982.079 1.012.019 2.11.036 3.3.054 1.19.018 2.62.026 4.289.026 1.668 0 3.095-.008 4.285-.026s2.282-.035 3.276-.054c.992-.017 1.961-.044 2.902-.079a670.69 670.69 0 0 1 3.062-.107 29.73 29.73 0 0 0-.188 1.172 8.848 8.848 0 0 0 0 2.342c.055.392.116.782.188 1.172a49.684 49.684 0 0 0-2.396-.293 70.285 70.285 0 0 0-2.637-.213c-.871-.053-1.696-.097-2.476-.133a45.432 45.432 0 0 0-1.971-.053 5.414 5.414 0 0 0-.08.745c-.02.32-.026.692-.026 1.118v16.136c0 2.946.034 5.564.106 7.854.069 2.29.177 4.536.319 6.736a16.933 16.933 0 0 0-1.971-.106h-4.792c-.711 0-1.367.035-1.972.106.143-2.2.247-4.446.32-6.736.071-2.29.105-4.908.105-7.854V34.865c.005-1.03-.004-1.971-.02-2.823zM536.27 36.196a196.728 196.728 0 0 0-2.609 6.311 236.871 236.871 0 0 0-2.396 6.363h9.743c-.78-2.165-1.552-4.287-2.314-6.363a244.878 244.878 0 0 0-2.424-6.311zm18.851 26.573a29.235 29.235 0 0 0-2.423-.106H548.171c-.765 0-1.518.035-2.264.106a901.34 901.34 0 0 0-1.757-5.325 167.569 167.569 0 0 0-1.917-5.432 228.857 228.857 0 0 0-6.817-.106 142.191 142.191 0 0 0-5.54.106 111.7 111.7 0 0 0-1.97 5.432 124.613 124.613 0 0 0-1.649 5.325 7.616 7.616 0 0 0-1.253-.106h-2.528a9.87 9.87 0 0 0-1.386.106c.426-.922.995-2.2 1.704-3.833a329.379 329.379 0 0 0 2.343-5.539c.853-2.059 1.768-4.268 2.744-6.63.976-2.36 1.95-4.748 2.928-7.162.977-2.414 1.936-4.793 2.877-7.137.94-2.343 1.801-4.526 2.582-6.549.355.071.691.133 1.013.186.318.053.654.08 1.012.08.354 0 .692-.027 1.01-.08.321-.053.658-.115 1.014-.186l3.646 9.692c1.297 3.444 2.6 6.825 3.914 10.145a560.538 560.538 0 0 0 3.835 9.452c1.243 2.981 2.379 5.502 3.409 7.561zM565.585 32.042c-.019-.852-.063-1.472-.133-1.863-.533 0-1.19.018-1.972.053-.78.036-1.614.08-2.503.133a76.88 76.88 0 0 0-2.715.213c-.923.089-1.775.186-2.557.293.07-.39.133-.78.188-1.172a8.848 8.848 0 0 0 0-2.342 29.73 29.73 0 0 0-.188-1.172c1.207.036 2.299.072 3.274.107.977.035 1.972.062 2.982.079 1.013.019 2.112.036 3.302.054s2.619.026 4.288.026c1.667 0 3.096-.008 4.286-.026 1.189-.018 2.281-.035 3.275-.054.993-.017 1.96-.044 2.902-.079.938-.035 1.96-.071 3.062-.107-.071.391-.133.781-.187 1.172a8.706 8.706 0 0 0 0 2.342c.054.392.115.782.187 1.172a49.528 49.528 0 0 0-2.396-.293 69.997 69.997 0 0 0-2.638-.213 168.47 168.47 0 0 0-2.475-.133 45.392 45.392 0 0 0-1.971-.053 5.414 5.414 0 0 0-.08.745c-.019.32-.026.692-.026 1.118v16.136c0 2.946.033 5.564.106 7.854.07 2.29.177 4.536.319 6.736a16.95 16.95 0 0 0-1.972-.106h-4.791c-.712 0-1.367.035-1.971.106.142-2.2.248-4.446.318-6.736.072-2.29.107-4.908.107-7.854V34.865a108.98 108.98 0 0 0-.021-2.823zM590.974 33.081a263.482 263.482 0 0 0-.279-6.896c1.597.036 3.176.089 4.739.16 1.562.071 3.142.106 4.739.106 2.626 0 4.961-.026 7.003-.08 2.041-.053 3.416-.114 4.127-.186-.143.568-.213 1.314-.213 2.237 0 .568.018 1.011.053 1.331.035.319.089.674.16 1.065-1.03-.071-2.157-.142-3.382-.213a991.508 991.508 0 0 1-3.567-.213 140.234 140.234 0 0 0-3.115-.16 60.142 60.142 0 0 0-1.971-.053 89.68 89.68 0 0 0-.239 5.805 585.979 585.979 0 0 0-.027 5.804c2.308-.035 4.394-.088 6.258-.16 1.864-.071 3.807-.16 5.831-.266a22.93 22.93 0 0 0-.213 1.384c-.036.32-.054.658-.054 1.012 0 .285.026.577.079.879.055.302.115.737.188 1.304a153.797 153.797 0 0 0-12.089-.479c0 1.136-.009 2.272-.026 3.408a203.784 203.784 0 0 0-.026 3.408c0 2.309.053 4.526.16 6.657 2.021 0 4.047-.054 6.07-.16a91.07 91.07 0 0 0 6.124-.533c-.071.391-.125.746-.16 1.065-.035.32-.053.764-.053 1.332 0 .568.018 1.011.053 1.331.035.319.089.586.16.798a148.82 148.82 0 0 0-3.541-.079 457.19 457.19 0 0 0-5.778-.027h-8.439c-.8 0-1.403.008-1.812.027a13.03 13.03 0 0 0-1.038.079c.124-2.2.217-4.446.279-6.736.062-2.29.093-4.908.093-7.854v-7.243a306.39 306.39 0 0 0-.094-7.854zM219.48 115.878c-1.824-.444-3.41-1.184-4.756-2.218-1.349-1.035-2.408-2.366-3.18-3.994-.773-1.626-1.158-3.604-1.158-5.939 0-1.313.007-2.489.025-3.524.016-1.035.024-1.997.024-2.884s.008-1.741.025-2.563c.016-.821.024-1.676.024-2.563 0-2.661-.017-4.813-.049-6.458-.033-1.642-.083-2.874-.147-3.696.656.066 1.33.123 2.021.173.69.049 1.363.073 2.02.073.658 0 1.332-.024 2.022-.073.69-.05 1.363-.106 2.021-.173-.33 3.188-.526 6.154-.592 8.897a347.619 347.619 0 0 0-.098 8.355c0 2.99.213 5.406.64 7.246.427 1.842 1.06 3.263 1.898 4.265.838 1.003 1.865 1.668 3.081 1.997 1.215.328 2.628.492 4.239.492 1.971 0 3.516-.492 4.634-1.479 1.116-.986 1.962-2.3 2.538-3.943.576-1.645.929-3.525 1.06-5.645.131-2.12.198-4.33.198-6.631a231.294 231.294 0 0 0-.395-13.555c.46.066.903.123 1.33.173a10 10 0 0 0 2.416 0c.394-.05.805-.106 1.232-.173a83.803 83.803 0 0 0-.197 2.908 334.795 334.795 0 0 0-.369 9.49 239.299 239.299 0 0 0-.074 6.087c0 5.719-1.233 9.818-3.697 12.299s-6.08 3.722-10.845 3.722c-2.104-.001-4.067-.222-5.891-.666zM251.201 86.128a279.096 279.096 0 0 1-.148-4.091c.921.165 1.659.246 2.218.246s1.298-.081 2.219-.246c3.581 3.977 7.123 7.888 10.623 11.731 3.5 3.846 7.09 7.757 10.77 11.732V96.431c0-1.61-.008-3.196-.024-4.758-.017-1.561-.033-2.998-.049-4.313a88.18 88.18 0 0 0-.099-3.401c-.049-.953-.107-1.594-.172-1.923.919.165 1.659.246 2.218.246.558 0 1.298-.081 2.217-.246a592.5 592.5 0 0 0-.64 14.936 272.936 272.936 0 0 0-.123 6.333 823.707 823.707 0 0 0-.025 6.68v5.916a20.521 20.521 0 0 0-2.021-.099c-.724 0-1.364.033-1.922.099a635.97 635.97 0 0 0-21.541-23.81 163.265 163.265 0 0 0-.1 5.767v5.719c0 1.972.008 3.648.025 5.028a149.15 149.15 0 0 0 .173 5.841c.032.608.065 1.093.098 1.454a7.255 7.255 0 0 0-1.183-.099h-1.133c-.757 0-1.513.033-2.267.099.064-.263.147-1.198.246-2.81.098-1.61.204-3.573.32-5.891.115-2.317.213-4.83.296-7.543.082-2.711.123-5.315.123-7.813 0-2.264-.033-4.17-.099-5.715zM291.474 88.42a209.225 209.225 0 0 0-.295-6.383c.558.066 1.166.123 1.824.173.657.049 1.396.073 2.218.073.821 0 1.562-.024 2.218-.073a42.53 42.53 0 0 0 1.824-.173 206.075 206.075 0 0 0-.296 6.383c-.067 2.12-.098 4.544-.098 7.272v6.703c0 2.729.031 5.151.098 7.271.065 2.12.164 4.199.296 6.236a15.817 15.817 0 0 0-1.824-.099h-4.436c-.658 0-1.266.033-1.824.099.131-2.037.23-4.116.295-6.236.067-2.119.1-4.542.1-7.271v-6.703c0-2.728-.033-5.152-.1-7.272zM329.135 94.189a288.586 288.586 0 0 0 4.339-12.152c.821.165 1.544.246 2.168.246s1.348-.081 2.169-.246a4829.01 4829.01 0 0 0-2.957 7 806.6 806.6 0 0 0-3.598 8.676 478.597 478.597 0 0 0-3.698 9.317 263.392 263.392 0 0 0-3.254 8.872 22.126 22.126 0 0 0-2.168-.099c-.789 0-1.513.033-2.169.099l-1.799-4.782c-.708-1.872-1.462-3.861-2.268-5.964a400.507 400.507 0 0 0-2.54-6.458 2020.8 2020.8 0 0 1-2.562-6.384c-.822-2.053-1.594-3.968-2.317-5.742s-1.348-3.286-1.873-4.535c.756.066 1.503.123 2.243.173a33.138 33.138 0 0 0 4.362 0c.723-.05 1.446-.106 2.169-.173a154.218 154.218 0 0 0 1.898 5.816 751.958 751.958 0 0 0 2.192 6.236 375.154 375.154 0 0 0 2.342 6.384 631.151 631.151 0 0 1 2.341 6.31 555.392 555.392 0 0 0 4.98-12.594zM344.429 88.42a251.063 251.063 0 0 0-.259-6.383c1.479.033 2.94.082 4.387.148 1.446.065 2.908.098 4.388.098 2.431 0 4.591-.024 6.482-.073 1.89-.05 3.162-.106 3.819-.173-.131.526-.196 1.217-.196 2.07 0 .526.017.937.049 1.231.032.297.082.626.147.986-.953-.064-1.995-.13-3.129-.197a609.599 609.599 0 0 1-3.303-.197c-1.069-.064-2.03-.114-2.884-.146a55.548 55.548 0 0 0-1.824-.051 84.987 84.987 0 0 0-.223 5.374 596.015 596.015 0 0 0-.024 5.374c2.136-.033 4.067-.083 5.792-.149 1.727-.064 3.525-.147 5.398-.246-.099.56-.165.986-.197 1.281-.033.296-.05.609-.05.938 0 .263.025.534.074.813.049.279.106.683.173 1.208a142.037 142.037 0 0 0-11.19-.442c0 1.051-.008 2.103-.024 3.154a184.314 184.314 0 0 0-.024 3.154c0 2.136.049 4.19.147 6.161 1.873 0 3.747-.049 5.619-.146a85.8 85.8 0 0 0 5.669-.493c-.065.361-.115.689-.147.985-.032.297-.049.707-.049 1.232 0 .526.017.938.049 1.233.032.295.082.541.147.738-.886-.033-1.979-.058-3.277-.074a438.53 438.53 0 0 0-5.349-.024h-7.814c-.74 0-1.298.008-1.676.024s-.699.041-.961.074c.114-2.037.2-4.116.259-6.236.057-2.119.086-4.542.086-7.271v-6.703c.001-2.728-.029-5.152-.085-7.272zM386.464 87.854c-.295-.854-.747-1.503-1.354-1.946-.609-.444-1.397-.731-2.366-.863-.97-.131-2.129-.197-3.476-.197-.098 4.47-.148 8.939-.148 13.408.198.033.387.059.567.073.181.019.353.025.518.025 2.17 0 3.828-.583 4.978-1.749 1.15-1.167 1.727-2.935 1.727-5.301-.002-1.446-.15-2.595-.446-3.45zm-7.345 12.521v2.021c0 2.729.032 5.151.1 7.271.064 2.12.163 4.199.296 6.236a15.855 15.855 0 0 0-1.824-.099H373.254c-.659 0-1.266.033-1.824.099.131-2.037.23-4.116.296-6.236.066-2.119.099-4.542.099-7.271v-6.703c0-2.729-.032-5.152-.099-7.272a209.24 209.24 0 0 0-.296-6.383c.559.066 1.165.123 1.824.173.656.049 1.396.073 2.218.073.888 0 1.897-.041 3.031-.123 1.134-.081 2.539-.123 4.216-.123 1.248 0 2.317.033 3.204.099.888.066 1.65.164 2.291.296s1.199.304 1.677.518c.477.214.929.469 1.355.764a8.004 8.004 0 0 1 2.342 2.687c.575 1.068.863 2.342.863 3.82 0 2.4-.659 4.355-1.973 5.866-1.314 1.513-3.204 2.58-5.668 3.204a153.491 153.491 0 0 0 5.077 8.355c1.806 2.777 3.614 5.529 5.422 8.257-.757-.065-1.495-.099-2.218-.099h-4.462c-.739 0-1.487.033-2.242.099l-8.824-15.527h-.444v-.002zM412.688 84.452c-1.512 0-2.743.443-3.697 1.332-.953.887-1.43 1.921-1.43 3.104 0 1.217.37 2.211 1.11 2.983.738.771 1.667 1.471 2.784 2.094a44.719 44.719 0 0 0 3.6 1.8 18.73 18.73 0 0 1 3.597 2.12 10.993 10.993 0 0 1 2.786 3.056c.738 1.2 1.108 2.736 1.108 4.609 0 1.645-.312 3.147-.936 4.51a9.957 9.957 0 0 1-2.661 3.5c-1.151.971-2.523 1.709-4.118 2.219-1.594.509-3.376.764-5.348.764-1.775 0-3.36-.189-4.757-.567-1.397-.377-2.457-.845-3.181-1.404.329-1.149.608-2.201.84-3.154a35.22 35.22 0 0 0 .59-3.105h.937a6.558 6.558 0 0 0 2.121 3.746c.558.493 1.231.88 2.021 1.158.789.28 1.677.419 2.661.419 1.973 0 3.427-.493 4.363-1.479.937-.985 1.404-2.169 1.404-3.548 0-1.249-.36-2.269-1.083-3.057-.723-.789-1.628-1.487-2.712-2.095a44.795 44.795 0 0 0-3.55-1.775 18.097 18.097 0 0 1-3.548-2.095 10.649 10.649 0 0 1-2.712-3.031c-.724-1.199-1.085-2.736-1.085-4.608 0-1.71.304-3.222.912-4.536.607-1.313 1.422-2.415 2.439-3.303a10.565 10.565 0 0 1 3.526-2.021c1.33-.461 2.735-.69 4.214-.69 1.773 0 3.327.214 4.658.641 1.331.428 2.473 1.02 3.426 1.774a29.176 29.176 0 0 0-.764 2.193l-.813 2.687h-.74c-1.049-2.827-3.037-4.241-5.962-4.241zM431.026 88.42a212.502 212.502 0 0 0-.296-6.383c.559.066 1.166.123 1.823.173.657.049 1.397.073 2.219.073.82 0 1.561-.024 2.219-.073a42.63 42.63 0 0 0 1.823-.173 209.24 209.24 0 0 0-.296 6.383c-.065 2.12-.098 4.544-.098 7.272v6.703c0 2.729.032 5.151.098 7.271.065 2.12.164 4.199.296 6.236a15.825 15.825 0 0 0-1.823-.099h-4.438c-.657 0-1.265.033-1.823.099.131-2.037.229-4.116.296-6.236.064-2.119.099-4.542.099-7.271v-6.703c0-2.728-.034-5.152-.099-7.272zM455.304 87.46c-.018-.789-.059-1.363-.123-1.727-.494 0-1.102.018-1.825.051-.723.032-1.495.073-2.316.123-.821.049-1.66.115-2.514.196-.854.083-1.645.173-2.367.271.066-.361.124-.723.173-1.085a7.876 7.876 0 0 0 0-2.169 22.802 22.802 0 0 0-.173-1.084c1.119.033 2.128.066 3.032.099.904.033 1.824.058 2.761.074l3.057.049c1.102.018 2.423.024 3.969.024 1.544 0 2.866-.007 3.968-.024 1.101-.017 2.111-.032 3.031-.049.919-.017 1.815-.041 2.687-.074.87-.032 1.815-.065 2.834-.099a27.41 27.41 0 0 0-.173 1.084 8.085 8.085 0 0 0 0 2.169c.05.362.107.724.173 1.085a46.397 46.397 0 0 0-2.218-.271 65.532 65.532 0 0 0-2.439-.196c-.807-.05-1.571-.091-2.293-.123a41.499 41.499 0 0 0-1.823-.051 4.982 4.982 0 0 0-.074.691c-.018.295-.025.641-.025 1.035v14.935c0 2.729.032 5.151.1 7.271.064 2.12.163 4.199.296 6.236a15.855 15.855 0 0 0-1.824-.099H456.761c-.659 0-1.266.033-1.825.099.132-2.037.23-4.116.297-6.236.066-2.119.098-4.542.098-7.271V90.071c-.004-.952-.013-1.823-.027-2.611zM494.073 93.597a72.769 72.769 0 0 0 1.922-3.771 169.268 169.268 0 0 0 1.824-3.969 306.153 306.153 0 0 1 1.727-3.82c.36.066.73.123 1.108.173.377.049.764.073 1.158.073s.78-.024 1.159-.073c.377-.05.78-.106 1.207-.173-.559.921-1.257 2.129-2.095 3.623a568.829 568.829 0 0 0-2.687 4.855 487.852 487.852 0 0 0-2.883 5.349 327.117 327.117 0 0 0-2.639 5.053c0 .789-.017 1.586-.049 2.39-.033.808-.05 1.62-.05 2.441 0 1.676.025 3.336.075 4.979.049 1.644.188 3.369.418 5.176a22.335 22.335 0 0 0-2.095-.099H487.982c-.707 0-1.404.033-2.094.099.064-1.511.18-3.056.345-4.634.164-1.577.245-3.154.245-4.732 0-.755-.008-1.52-.023-2.292-.019-.772-.042-1.535-.074-2.292a269.605 269.605 0 0 0-2.835-5.496 3089.595 3089.595 0 0 1-3.104-5.891c-1.005-1.906-1.923-3.631-2.761-5.176s-1.454-2.662-1.849-3.353c.756.066 1.495.123 2.218.173a32.8 32.8 0 0 0 2.218.073c.757 0 1.487-.024 2.194-.073.707-.05 1.438-.106 2.193-.173a293.299 293.299 0 0 0 1.898 4.042 559.744 559.744 0 0 0 2.094 4.338 201.569 201.569 0 0 0 1.924 3.845c.591 1.15 1.066 2.006 1.43 2.563h.098a36.275 36.275 0 0 0 1.974-3.228z"/></g></svg>